<svg xmlns="http://www.w3.org/2000/svg" width="64" height="64" viewBox="0 0 64 64">
  <g id="Group_354" data-name="Group 354" transform="translate(-1226 -602)">
    <rect id="Rectangle_88" data-name="Rectangle 88" width="64" height="64" rx="6" transform="translate(1226 602)" fill="#bebebe"/>
    <g id="Group_19" data-name="Group 19" transform="translate(1239.545 614.892)">
      <path id="Path_50" data-name="Path 50" d="M50.819,21.117h-4.05v-2.7a1.35,1.35,0,0,0-2.7,0v2.7h-16.2v-2.7a1.35,1.35,0,0,0-2.7,0v2.7h-4.05a4.05,4.05,0,0,0-4.05,4.05V50.819a4.05,4.05,0,0,0,4.05,4.05h29.7a4.05,4.05,0,0,0,4.05-4.05V25.167A4.05,4.05,0,0,0,50.819,21.117Zm-29.7,2.7h4.05v2.7a1.35,1.35,0,1,0,2.7,0v-2.7h16.2v2.7a1.35,1.35,0,1,0,2.7,0v-2.7h4.05a1.35,1.35,0,0,1,1.35,1.35v5.4h-32.4v-5.4A1.35,1.35,0,0,1,21.117,23.817Zm29.7,28.352h-29.7a1.35,1.35,0,0,1-1.35-1.35V33.268h32.4V50.819A1.35,1.35,0,0,1,50.819,52.169Z" transform="translate(-17.067 -17.067)" fill="#fff"/>
      <path id="Path_51" data-name="Path 51" d="M153.323,256.589l-9.846,9.846-4.446-4.446a1.35,1.35,0,0,0-1.909,1.909l5.4,5.4a1.35,1.35,0,0,0,1.909,0l10.8-10.8a1.35,1.35,0,0,0-1.909-1.909Z" transform="translate(-127.276 -237.292)" fill="#fff"/>
    </g>
  </g>
</svg>
