<svg id="Group_442" data-name="Group 442" xmlns="http://www.w3.org/2000/svg" width="62.871" height="57.912" viewBox="0 0 62.871 57.912">
  <path id="Path_225" data-name="Path 225" d="M31.418,30.33C17.714,18.094.289,28.845,0,43.419A19.212,19.212,0,0,0,3.072,54.087H16.623l2.41-4.1a1.822,1.822,0,0,1,3.133-.042L27.252,58.1l7.413-15.975a1.826,1.826,0,0,1,3.286-.087l6.354,12.047H59.763C71.215,35.817,48.583,15,31.418,30.33Z" transform="translate(0 -25.004)" fill="#fff"/>
  <path id="Path_226" data-name="Path 226" d="M84.34,211.01l-5.149-9.762L71.91,216.94a1.825,1.825,0,0,1-3.218.2l-5.276-8.463L62,211.086a1.834,1.834,0,0,1-1.579.913H48.742c.366.391-1.585-1.6,24.133,24.522a1.815,1.815,0,0,0,2.6,0C100.8,210.8,99.241,212.389,99.606,212H85.962a1.836,1.836,0,0,1-1.622-.989Z" transform="translate(-42.757 -179.155)" fill="#fff"/>
</svg>
