<svg id="Group_445" data-name="Group 445" xmlns="http://www.w3.org/2000/svg" width="64.541" height="56.782" viewBox="0 0 64.541 56.782">
  <path id="Path_235" data-name="Path 235" d="M255.856,365.232h21.356l-2.161-3.782H249.344A7.537,7.537,0,0,0,255.856,365.232Z" transform="translate(-217.913 -319.795)" fill="#fff"/>
  <path id="Path_236" data-name="Path 236" d="M157.77,31.885,145.48,53.519a32.624,32.624,0,0,1,13.932-3.553,9.465,9.465,0,0,1,9.454,9.454,1.889,1.889,0,0,1-1.891,1.891h-1.891a7.571,7.571,0,0,0-7.563,7.563h24.6L161.053,31.885A1.967,1.967,0,0,0,157.77,31.885Z" transform="translate(-127.142 -31.002)" fill="#fff"/>
  <path id="Path_237" data-name="Path 237" d="M61.46,237.922H37.943a11.345,11.345,0,0,1-.323-22.686,5.682,5.682,0,0,0-5.349-3.786c-5.872,0-14.449,3-18.527,7.812L.25,242.656a1.891,1.891,0,0,0,1.642,2.829H62.65a1.89,1.89,0,0,0,1.642-2.829Z" transform="translate(0 -188.704)" fill="#fff"/>
</svg>
