<svg id="Group_444" data-name="Group 444" xmlns="http://www.w3.org/2000/svg" width="28.918" height="62.564" viewBox="0 0 28.918 62.564">
  <g id="Group_173" data-name="Group 173" transform="translate(5.982 0)">
    <g id="Group_172" data-name="Group 172" transform="translate(0)">
      <ellipse id="Ellipse_62" data-name="Ellipse 62" cx="7.646" cy="7.5" rx="7.646" ry="7.5" fill="#fff"/>
    </g>
  </g>
  <g id="Group_175" data-name="Group 175" transform="translate(0 17.621)">
    <g id="Group_174" data-name="Group 174" transform="translate(0)">
      <path id="Path_233" data-name="Path 233" d="M297.022,180.429h1.48a2.609,2.609,0,0,0,1.807-.695,1.839,1.839,0,0,0,.583-1.606l-2.164-14.484A4.638,4.638,0,0,0,293.923,160H278.982a4.626,4.626,0,0,0-4.8,3.624l-2.169,14.5a1.839,1.839,0,0,0,.583,1.606,2.608,2.608,0,0,0,1.807.695h1.475L272.119,190a1.794,1.794,0,0,0,.328,1.839,2.563,2.563,0,0,0,1.957.85h2.776l1.74,8.842a4.65,4.65,0,0,0,4.757,3.416h5.552a4.64,4.64,0,0,0,4.752-3.416l1.745-8.842H298.5a2.545,2.545,0,0,0,1.952-.85,1.775,1.775,0,0,0,.333-1.839Z" transform="translate(-271.993 -160)" fill="#fff"/>
    </g>
  </g>
</svg>
