<svg xmlns="http://www.w3.org/2000/svg" width="55.691" height="55.963" viewBox="0 0 55.691 55.963">
  <path id="Path_413" data-name="Path 413" d="M126.834,55.963V38.948c3.982-.261,11.14-1.441,16.078-6.333,7.021-6.954,6.471-18.356,6.444-18.838a2.791,2.791,0,0,0-2.646-2.62c-.486-.027-12-.571-19.019,6.383a18,18,0,0,0-1.993,2.353,25.978,25.978,0,0,0-6.575-12.247C110.739-.661,96.938-.008,96.355.024a2.791,2.791,0,0,0-2.646,2.62c-.032.578-.692,14.247,7.695,22.553,6.144,6.085,15.192,7.362,19.822,7.6V55.963a25.177,25.177,0,0,1,5.608,0Z" transform="translate(-93.686)" fill="#fff"/>
</svg>
