<svg xmlns="http://www.w3.org/2000/svg" width="25.001" height="25" viewBox="0 0 25.001 25">
  <g id="Group_950" data-name="Group 950" transform="translate(-243.999 -599)">
    <rect id="Rectangle_1435" data-name="Rectangle 1435" width="25" height="25" transform="translate(244 599)" fill="#e5e5e5" opacity="0"/>
    <g id="Group_923" data-name="Group 923" transform="translate(-432.645 225.79)">
      <g id="Group_922" data-name="Group 922" transform="translate(676.644 373.21)">
        <g id="Group_921" data-name="Group 921">
          <g id="Symbol_56_0_Layer0_0_FILL" data-name="Symbol 56 0 Layer0 0 FILL">
            <path id="Path_592" data-name="Path 592" d="M676.714,409.136a1.635,1.635,0,0,0,.16,1.315,14.092,14.092,0,0,0,2.326,2.9,13.735,13.735,0,0,0,9.946,3.985,13.561,13.561,0,0,0,9.906-3.985h-.04a11.864,11.864,0,0,0,2.366-2.9,1.547,1.547,0,0,0,.2-1.315,1.781,1.781,0,0,0-.882-1.083,1.8,1.8,0,0,0-1.364-.155,1.874,1.874,0,0,0-1.123.812,8.468,8.468,0,0,1-1.724,2.128q0,.03-.04.039a9.963,9.963,0,0,1-7.3,2.94,10.191,10.191,0,0,1-7.379-2.94,10.441,10.441,0,0,1-1.724-2.167,1.718,1.718,0,0,0-1.083-.812,1.92,1.92,0,0,0-1.4.155A1.809,1.809,0,0,0,676.714,409.136Z" transform="translate(-676.644 -392.339)" fill="#868686"/>
            <path id="Path_593" data-name="Path 593" d="M695.227,373.216a4.255,4.255,0,0,0-3.088,1.122,4.147,4.147,0,0,0-3.048-1.122A6.549,6.549,0,0,0,684.56,375a.035.035,0,0,1-.04.039,6.087,6.087,0,0,0-1.845,4.372A5.874,5.874,0,0,0,684,383.121c.045.073.085.138.12.193l6.376,6.152a1.556,1.556,0,0,0,.321.426,1.713,1.713,0,0,0,1.283.5l.08-.038a1.713,1.713,0,0,0,1.283-.5,1.2,1.2,0,0,0,.241-.31l6.457-6.229a.872.872,0,0,0,.161-.193,5.687,5.687,0,0,0,1.283-3.714,5.88,5.88,0,0,0-1.845-4.372l-.04-.039a6.406,6.406,0,0,0-4.492-1.78m-2.406,5.649a1.692,1.692,0,0,0,.962-.774,2.5,2.5,0,0,1,1.444-1.354,2.863,2.863,0,0,1,1.925.735l.04.038a2.57,2.57,0,0,1,.762,1.9,2.306,2.306,0,0,1-.441,1.47l-5.374,5.184-5.374-5.184a2.683,2.683,0,0,1-.441-1.47,2.8,2.8,0,0,1,.762-1.9.035.035,0,0,0,.04-.038,3.018,3.018,0,0,1,1.965-.735,2.541,2.541,0,0,1,1.484,1.354,1.859,1.859,0,0,0,.962.813A1.809,1.809,0,0,0,692.821,378.865Z" transform="translate(-679.878 -373.21)" fill="#ae5ea2"/>
          </g>
        </g>
      </g>
    </g>
  </g>
</svg>
