<svg id="icon-add_a_friend" data-name="icon-add a friend" xmlns="http://www.w3.org/2000/svg" width="92.074" height="93.225" viewBox="0 0 92.074 93.225">
  <rect id="Rectangle_1093" data-name="Rectangle 1093" width="90" height="90" fill="red" opacity="0"/>
  <g id="Group_206" data-name="Group 206" transform="translate(2.939 3.74)">
    <g id="Group_205" data-name="Group 205" transform="translate(0)">
      <path id="Path_267" data-name="Path 267" d="M90.135,55.4A18.343,18.343,0,0,0,58.166,43.116,39.481,39.481,0,0,0,52.1,40.624,22.021,22.021,0,1,0,28.511,40.6,39.378,39.378,0,0,0,1,78.124v8.739a2.622,2.622,0,0,0,2.622,2.622H77.027a2.622,2.622,0,0,0,2.622-2.622V78.124a39.27,39.27,0,0,0-.457-5.933A18.377,18.377,0,0,0,90.135,55.4ZM23.546,22.022A16.778,16.778,0,1,1,40.324,38.8,16.8,16.8,0,0,1,23.546,22.022Zm50.86,56.1v6.117H6.243V78.124A34.021,34.021,0,0,1,55.22,47.507,18.348,18.348,0,0,0,71.784,73.755,18.453,18.453,0,0,0,74.1,73.61,33.927,33.927,0,0,1,74.406,78.124ZM75.577,67.95c-.065.016-.13.034-.193.055a12.96,12.96,0,1,1,.193-.055Z" transform="translate(-1 0)" fill="#696969"/>
      <path id="Path_268" data-name="Path 268" d="M374.108,277.243h-2.622v-2.622a2.622,2.622,0,0,0-5.243,0v2.622h-2.621a2.622,2.622,0,1,0,0,5.243h2.621v2.622a2.622,2.622,0,0,0,5.243,0v-2.622h2.622a2.622,2.622,0,0,0,0-5.243Z" transform="translate(-298.081 -224.461)" fill="#696969"/>
    </g>
  </g>
</svg>
