<svg xmlns="http://www.w3.org/2000/svg" width="25.001" height="25.086" viewBox="0 0 25.001 25.086">
  <g id="Group_949" data-name="Group 949" transform="translate(-243.999 -564)">
    <rect id="Rectangle_1439" data-name="Rectangle 1439" width="25" height="25" transform="translate(244 564)" fill="#e5e5e5" opacity="0"/>
    <g id="Group_947" data-name="Group 947" transform="translate(-429.963 316.854)">
      <g id="Group_937" data-name="Group 937" transform="translate(673.962 250.407)">
        <g id="Group_936" data-name="Group 936" transform="translate(0 0)">
          <g id="Group_935" data-name="Group 935">
            <g id="Symbol_64_copy_4_0_Layer0_0_FILL" data-name="Symbol 64 copy 4 0 Layer0 0 FILL">
              <path id="Path_602" data-name="Path 602" d="M674.953,260.473a3.723,3.723,0,0,0-.758,1.062,9.5,9.5,0,0,1,2.7-4.79,9.662,9.662,0,0,1,3.5-2.259,1.291,1.291,0,0,1,1.069.039,1.361,1.361,0,0,1,.719.773,1.222,1.222,0,0,1-.02,1.062,1.353,1.353,0,0,1-.8.734,6.92,6.92,0,0,0-2.488,1.641,6.5,6.5,0,0,0-.642.7,1.091,1.091,0,0,0-.214-.02,1.316,1.316,0,0,0-.389-.019,3.7,3.7,0,0,0-2.683,1.082m2.625,5.871a3.153,3.153,0,0,0-.35-.02,3.223,3.223,0,0,1-1.964-.927,3.091,3.091,0,0,1-.933-2.3,3.151,3.151,0,0,1,.933-2.3,3.2,3.2,0,0,1,2.314-.947,3.15,3.15,0,0,1,.35.02,3.027,3.027,0,0,1,1.964.927,3.087,3.087,0,0,1,.972,2.3,3.23,3.23,0,0,1-.972,2.3,3.31,3.31,0,0,1-2.313.947m1.983,6.431a10.034,10.034,0,0,1-2.663-1.951,9.539,9.539,0,0,1-2.935-6.7,3.463,3.463,0,0,0,.991,1.68,3.775,3.775,0,0,0,2.294,1.1,1.021,1.021,0,0,1,.194.019,7.214,7.214,0,0,0,1.439,1.931,7.768,7.768,0,0,0,.68.6,6.845,6.845,0,0,0,1.827,1.043,1.352,1.352,0,0,1,.778.753,1.222,1.222,0,0,1,.02,1.062,1.359,1.359,0,0,1-.739.773,1.292,1.292,0,0,1-1.069.039Q679.95,272.949,679.561,272.775Z" transform="translate(-673.962 -254.388)" fill="#878787"/>
            </g>
          </g>
        </g>
      </g>
      <g id="Group_940" data-name="Group 940" transform="translate(676.994 263.951)">
        <g id="Group_939" data-name="Group 939" transform="translate(0 0)">
          <g id="Group_938" data-name="Group 938">
            <g id="Symbol_64_0_Layer0_0_FILL" data-name="Symbol 64 0 Layer0 0 FILL">
              <path id="Path_603" data-name="Path 603" d="M687.075,292.9a3.743,3.743,0,0,0,1.069.753,10.111,10.111,0,0,1-7.1-6.16,1.27,1.27,0,0,1,.039-1.062,1.363,1.363,0,0,1,.777-.715,1.244,1.244,0,0,1,1.069.02,1.35,1.35,0,0,1,.739.792A6.863,6.863,0,0,0,685.326,289a6.448,6.448,0,0,0,.7.637,1.067,1.067,0,0,0-.02.213,1.285,1.285,0,0,0-.02.386,3.651,3.651,0,0,0,1.089,2.665m5.91-2.607a3.136,3.136,0,0,0-.019.348,3.184,3.184,0,0,1-.933,1.95,3.134,3.134,0,0,1-2.313.927,3.2,3.2,0,0,1-2.314-.927,3.16,3.16,0,0,1-.952-2.3,3.217,3.217,0,0,1,.019-.347,3,3,0,0,1,.933-1.951,3.129,3.129,0,0,1,2.314-.966,3.275,3.275,0,0,1,3.266,3.264m6.474-1.97a9.97,9.97,0,0,1-1.964,2.646,9.662,9.662,0,0,1-6.746,2.916,3.5,3.5,0,0,0,1.691-.985,3.727,3.727,0,0,0,1.108-2.279.968.968,0,0,1,.02-.193A7.259,7.259,0,0,0,695.512,289a7.713,7.713,0,0,0,.6-.676,6.748,6.748,0,0,0,1.05-1.816,1.351,1.351,0,0,1,.758-.772,1.243,1.243,0,0,1,1.069-.02,1.36,1.36,0,0,1,.778.734,1.268,1.268,0,0,1,.039,1.062Q699.634,287.939,699.459,288.325Z" transform="translate(-680.951 -285.607)" fill="#ea5166"/>
            </g>
          </g>
        </g>
      </g>
      <g id="Group_943" data-name="Group 943" transform="translate(690.627 250.407)">
        <g id="Group_942" data-name="Group 942" transform="translate(0 0)">
          <g id="Group_941" data-name="Group 941">
            <g id="Symbol_64_copy_3_0_Layer0_0_FILL" data-name="Symbol 64 copy 3 0 Layer0 0 FILL">
              <path id="Path_604" data-name="Path 604" d="M719.719,260.473a3.724,3.724,0,0,1,.758,1.062,9.5,9.5,0,0,0-2.7-4.79,9.662,9.662,0,0,0-3.5-2.259,1.291,1.291,0,0,0-1.069.039,1.361,1.361,0,0,0-.719.773,1.222,1.222,0,0,0,.02,1.062,1.352,1.352,0,0,0,.8.734,6.919,6.919,0,0,1,2.488,1.641,6.483,6.483,0,0,1,.642.7,1.089,1.089,0,0,1,.214-.02,1.314,1.314,0,0,1,.389-.019,3.7,3.7,0,0,1,2.683,1.082m-2.625,5.871a3.154,3.154,0,0,1,.35-.02,3.223,3.223,0,0,0,1.964-.927,3.09,3.09,0,0,0,.933-2.3,3.151,3.151,0,0,0-.933-2.3,3.2,3.2,0,0,0-2.314-.947,3.144,3.144,0,0,0-.35.02,3.027,3.027,0,0,0-1.964.927,3.087,3.087,0,0,0-.972,2.3,3.23,3.23,0,0,0,.972,2.3,3.31,3.31,0,0,0,2.313.947m-1.983,6.431a10.032,10.032,0,0,0,2.663-1.951,9.541,9.541,0,0,0,2.935-6.7,3.463,3.463,0,0,1-.991,1.68,3.775,3.775,0,0,1-2.294,1.1,1.018,1.018,0,0,0-.194.019,7.225,7.225,0,0,1-1.439,1.931,7.758,7.758,0,0,1-.68.6,6.839,6.839,0,0,1-1.828,1.043,1.352,1.352,0,0,0-.777.753,1.222,1.222,0,0,0-.02,1.062,1.358,1.358,0,0,0,.739.773,1.292,1.292,0,0,0,1.069.039Q714.723,272.949,715.112,272.775Z" transform="translate(-712.375 -254.388)" fill="#878787"/>
            </g>
          </g>
        </g>
      </g>
      <g id="Group_946" data-name="Group 946" transform="translate(676.994 247.357)">
        <g id="Group_945" data-name="Group 945" transform="translate(0)">
          <g id="Group_944" data-name="Group 944">
            <g id="Symbol_64_0_Layer0_0_FILL-2" data-name="Symbol 64 0 Layer0 0 FILL">
              <path id="Path_605" data-name="Path 605" d="M687.075,248.342a3.743,3.743,0,0,1,1.069-.753,10.11,10.11,0,0,0-7.1,6.161,1.269,1.269,0,0,0,.039,1.062,1.363,1.363,0,0,0,.777.715,1.246,1.246,0,0,0,1.069-.019,1.352,1.352,0,0,0,.739-.792,6.863,6.863,0,0,1,1.652-2.472,6.446,6.446,0,0,1,.7-.637,1.066,1.066,0,0,1-.02-.212,1.289,1.289,0,0,1-.02-.387,3.651,3.651,0,0,1,1.089-2.665m5.91,2.607a3.129,3.129,0,0,1-.019-.348,3.184,3.184,0,0,0-.933-1.951,3.132,3.132,0,0,0-2.313-.927,3.2,3.2,0,0,0-2.314.927,3.16,3.16,0,0,0-.952,2.3,3.218,3.218,0,0,0,.019.347,3,3,0,0,0,.933,1.951,3.129,3.129,0,0,0,2.314.966,3.275,3.275,0,0,0,3.266-3.264m6.474,1.97a9.97,9.97,0,0,0-1.964-2.646,9.662,9.662,0,0,0-6.746-2.916,3.5,3.5,0,0,1,1.691.985,3.73,3.73,0,0,1,1.108,2.279.968.968,0,0,0,.02.193,7.259,7.259,0,0,1,1.944,1.429,7.779,7.779,0,0,1,.6.676,6.748,6.748,0,0,1,1.05,1.816,1.353,1.353,0,0,0,.758.773,1.245,1.245,0,0,0,1.069.019,1.358,1.358,0,0,0,.778-.734,1.267,1.267,0,0,0,.039-1.062Q699.634,253.305,699.459,252.919Z" transform="translate(-680.951 -247.357)" fill="#ea5166"/>
            </g>
          </g>
        </g>
      </g>
    </g>
  </g>
</svg>
