<svg xmlns="http://www.w3.org/2000/svg" width="26" height="26" viewBox="0 0 26 26">
  <g id="my-details" transform="translate(-328 -1055)">
    <g id="Ellipse_133" data-name="Ellipse 133" transform="translate(328 1055)" fill="#fff" stroke="#707070" stroke-width="1">
      <circle cx="13" cy="13" r="13" stroke="none"/>
      <circle cx="13" cy="13" r="12.5" fill="none"/>
    </g>
    <g id="Group_973" data-name="Group 973" transform="translate(88.563 495.434)">
      <rect id="Rectangle_1439" data-name="Rectangle 1439" width="17" height="17" transform="translate(244.438 563.566)" fill="#e5e5e5" opacity="0"/>
      <g id="Group_947" data-name="Group 947" transform="translate(243.999 564.131)">
        <g id="Group_937" data-name="Group 937" transform="translate(0 2.08)">
          <g id="Group_936" data-name="Group 936" transform="translate(0 0)">
            <g id="Group_935" data-name="Group 935">
              <g id="Symbol_64_copy_4_0_Layer0_0_FILL" data-name="Symbol 64 copy 4 0 Layer0 0 FILL">
                <path id="Path_602" data-name="Path 602" d="M674.638,258.536a2.539,2.539,0,0,0-.517.724,6.477,6.477,0,0,1,1.842-3.265,6.587,6.587,0,0,1,2.385-1.54.88.88,0,0,1,.729.026.928.928,0,0,1,.49.527.833.833,0,0,1-.013.724.922.922,0,0,1-.543.5,4.717,4.717,0,0,0-1.7,1.119,4.429,4.429,0,0,0-.437.474.743.743,0,0,0-.146-.013.9.9,0,0,0-.265-.013,2.522,2.522,0,0,0-1.829.737m1.789,4a2.156,2.156,0,0,0-.239-.013,2.2,2.2,0,0,1-1.339-.632,2.107,2.107,0,0,1-.636-1.567,2.148,2.148,0,0,1,.636-1.567,2.182,2.182,0,0,1,1.577-.645,2.15,2.15,0,0,1,.238.013,2.064,2.064,0,0,1,1.339.632,2.1,2.1,0,0,1,.663,1.567,2.2,2.2,0,0,1-.663,1.567,2.257,2.257,0,0,1-1.577.645m1.352,4.384a6.841,6.841,0,0,1-1.816-1.33,6.5,6.5,0,0,1-2-4.569,2.36,2.36,0,0,0,.676,1.145,2.573,2.573,0,0,0,1.564.751.7.7,0,0,1,.132.013,4.917,4.917,0,0,0,.981,1.317,5.3,5.3,0,0,0,.464.408,4.667,4.667,0,0,0,1.246.711.922.922,0,0,1,.53.513.833.833,0,0,1,.013.724.927.927,0,0,1-.5.527.881.881,0,0,1-.729.026Q678.044,267.041,677.779,266.923Z" transform="translate(-673.962 -254.388)" fill="#878787"/>
              </g>
            </g>
          </g>
        </g>
        <g id="Group_940" data-name="Group 940" transform="translate(2.067 11.312)">
          <g id="Group_939" data-name="Group 939" transform="translate(0 0)">
            <g id="Group_938" data-name="Group 938">
              <g id="Symbol_64_0_Layer0_0_FILL" data-name="Symbol 64 0 Layer0 0 FILL">
                <path id="Path_603" data-name="Path 603" d="M685.126,290.58a2.553,2.553,0,0,0,.729.513,6.893,6.893,0,0,1-4.837-4.2.866.866,0,0,1,.027-.724.929.929,0,0,1,.53-.487.848.848,0,0,1,.729.013.92.92,0,0,1,.5.54,4.677,4.677,0,0,0,1.126,1.685,4.392,4.392,0,0,0,.477.434.727.727,0,0,0-.013.145.877.877,0,0,0-.013.263,2.489,2.489,0,0,0,.742,1.817m4.029-1.777a2.146,2.146,0,0,0-.013.237,2.171,2.171,0,0,1-.636,1.33,2.137,2.137,0,0,1-1.577.632,2.179,2.179,0,0,1-1.577-.632,2.154,2.154,0,0,1-.649-1.567,2.2,2.2,0,0,1,.013-.237,2.043,2.043,0,0,1,.636-1.33,2.133,2.133,0,0,1,1.577-.658,2.232,2.232,0,0,1,2.226,2.225m4.413-1.343a6.8,6.8,0,0,1-1.339,1.8,6.587,6.587,0,0,1-4.6,1.988,2.385,2.385,0,0,0,1.153-.671,2.541,2.541,0,0,0,.755-1.554.659.659,0,0,1,.013-.132,4.95,4.95,0,0,0,1.325-.974,5.261,5.261,0,0,0,.411-.461,4.6,4.6,0,0,0,.716-1.238.921.921,0,0,1,.517-.526.848.848,0,0,1,.729-.013.927.927,0,0,1,.53.5.864.864,0,0,1,.026.724Q693.687,287.2,693.568,287.46Z" transform="translate(-680.951 -285.607)" fill="#ea5166"/>
              </g>
            </g>
          </g>
        </g>
        <g id="Group_943" data-name="Group 943" transform="translate(11.361 2.08)">
          <g id="Group_942" data-name="Group 942" transform="translate(0 0)">
            <g id="Group_941" data-name="Group 941">
              <g id="Symbol_64_copy_3_0_Layer0_0_FILL" data-name="Symbol 64 copy 3 0 Layer0 0 FILL">
                <path id="Path_604" data-name="Path 604" d="M717.382,258.536a2.539,2.539,0,0,1,.517.724,6.477,6.477,0,0,0-1.842-3.265,6.588,6.588,0,0,0-2.386-1.54.88.88,0,0,0-.729.026.928.928,0,0,0-.49.527.833.833,0,0,0,.013.724.922.922,0,0,0,.543.5,4.716,4.716,0,0,1,1.7,1.119,4.417,4.417,0,0,1,.437.474.742.742,0,0,1,.146-.013.9.9,0,0,1,.265-.013,2.522,2.522,0,0,1,1.829.737m-1.789,4a2.159,2.159,0,0,1,.239-.013,2.2,2.2,0,0,0,1.339-.632,2.106,2.106,0,0,0,.636-1.567,2.148,2.148,0,0,0-.636-1.567,2.183,2.183,0,0,0-1.577-.645,2.144,2.144,0,0,0-.238.013,2.063,2.063,0,0,0-1.339.632,2.1,2.1,0,0,0-.663,1.567,2.2,2.2,0,0,0,.663,1.567,2.256,2.256,0,0,0,1.577.645m-1.352,4.384a6.839,6.839,0,0,0,1.816-1.33,6.5,6.5,0,0,0,2-4.569,2.36,2.36,0,0,1-.676,1.145,2.573,2.573,0,0,1-1.564.751.7.7,0,0,0-.133.013,4.925,4.925,0,0,1-.981,1.317,5.289,5.289,0,0,1-.464.408,4.665,4.665,0,0,1-1.246.711.922.922,0,0,0-.53.513.833.833,0,0,0-.013.724.925.925,0,0,0,.5.527.881.881,0,0,0,.729.026Q713.976,267.041,714.241,266.923Z" transform="translate(-712.375 -254.388)" fill="#878787"/>
              </g>
            </g>
          </g>
        </g>
        <g id="Group_946" data-name="Group 946" transform="translate(2.067 0)">
          <g id="Group_945" data-name="Group 945" transform="translate(0)">
            <g id="Group_944" data-name="Group 944">
              <g id="Symbol_64_0_Layer0_0_FILL-2" data-name="Symbol 64 0 Layer0 0 FILL">
                <path id="Path_605" data-name="Path 605" d="M685.126,248.028a2.552,2.552,0,0,1,.729-.513,6.893,6.893,0,0,0-4.837,4.2.865.865,0,0,0,.027.724.929.929,0,0,0,.53.487.849.849,0,0,0,.729-.013.922.922,0,0,0,.5-.54,4.677,4.677,0,0,1,1.126-1.685,4.391,4.391,0,0,1,.477-.434.726.726,0,0,1-.013-.145.88.88,0,0,1-.013-.264,2.489,2.489,0,0,1,.742-1.817m4.029,1.777a2.141,2.141,0,0,1-.013-.237,2.171,2.171,0,0,0-.636-1.33,2.135,2.135,0,0,0-1.577-.632,2.178,2.178,0,0,0-1.577.632,2.154,2.154,0,0,0-.649,1.567,2.2,2.2,0,0,0,.013.237,2.043,2.043,0,0,0,.636,1.33,2.133,2.133,0,0,0,1.577.658,2.233,2.233,0,0,0,2.226-2.225m4.413,1.343a6.8,6.8,0,0,0-1.339-1.8,6.587,6.587,0,0,0-4.6-1.988,2.385,2.385,0,0,1,1.153.671,2.542,2.542,0,0,1,.755,1.554.66.66,0,0,0,.013.132,4.95,4.95,0,0,1,1.325.974,5.3,5.3,0,0,1,.411.461,4.6,4.6,0,0,1,.716,1.238.923.923,0,0,0,.517.527.849.849,0,0,0,.729.013.926.926,0,0,0,.53-.5.864.864,0,0,0,.026-.724Q693.687,251.412,693.568,251.149Z" transform="translate(-680.951 -247.357)" fill="#ea5166"/>
              </g>
            </g>
          </g>
        </g>
      </g>
    </g>
  </g>
</svg>
