<svg xmlns="http://www.w3.org/2000/svg" width="44.667" height="44.667" viewBox="0 0 44.667 44.667">
  <path id="Path_40" data-name="Path 40" d="M22.333,3.97a68.479,68.479,0,0,1,8.933.248,11.51,11.51,0,0,1,4.219.744A8.715,8.715,0,0,1,39.7,9.182a11.51,11.51,0,0,1,.744,4.219c0,2.233.248,2.978.248,8.933a68.479,68.479,0,0,1-.248,8.933,11.51,11.51,0,0,1-.744,4.219A8.715,8.715,0,0,1,35.485,39.7a11.51,11.51,0,0,1-4.219.744c-2.233,0-2.978.248-8.933.248a68.479,68.479,0,0,1-8.933-.248A11.51,11.51,0,0,1,9.182,39.7a8.715,8.715,0,0,1-4.219-4.219,11.51,11.51,0,0,1-.744-4.219c0-2.233-.248-2.978-.248-8.933A68.479,68.479,0,0,1,4.219,13.4a11.51,11.51,0,0,1,.744-4.219A8.912,8.912,0,0,1,6.7,6.7,4.2,4.2,0,0,1,9.182,4.963,11.51,11.51,0,0,1,13.4,4.219a68.479,68.479,0,0,1,8.933-.248m0-3.97a73.321,73.321,0,0,0-9.182.248,15.32,15.32,0,0,0-5.459.993,9.714,9.714,0,0,0-3.97,2.481,9.714,9.714,0,0,0-2.481,3.97,11.306,11.306,0,0,0-.993,5.459A73.321,73.321,0,0,0,0,22.333a73.321,73.321,0,0,0,.248,9.181,15.32,15.32,0,0,0,.993,5.459,9.714,9.714,0,0,0,2.481,3.97,9.714,9.714,0,0,0,3.97,2.481,15.32,15.32,0,0,0,5.459.993,73.321,73.321,0,0,0,9.182.248,73.321,73.321,0,0,0,9.181-.248,15.32,15.32,0,0,0,5.459-.993,10.411,10.411,0,0,0,6.452-6.452,15.32,15.32,0,0,0,.993-5.459c0-2.481.248-3.226.248-9.181a73.321,73.321,0,0,0-.248-9.182,15.32,15.32,0,0,0-.993-5.459,9.714,9.714,0,0,0-2.481-3.97,9.714,9.714,0,0,0-3.97-2.481A15.32,15.32,0,0,0,31.515.248,73.321,73.321,0,0,0,22.333,0m0,10.919A11.231,11.231,0,0,0,10.919,22.333,11.415,11.415,0,1,0,22.333,10.919m0,18.859a7.312,7.312,0,0,1-7.444-7.444,7.312,7.312,0,0,1,7.444-7.444,7.312,7.312,0,0,1,7.444,7.444,7.312,7.312,0,0,1-7.444,7.444M34.245,7.693a2.73,2.73,0,1,0,2.73,2.73,2.754,2.754,0,0,0-2.73-2.73" fill="#e7247d" fill-rule="evenodd"/>
</svg>
