<svg xmlns="http://www.w3.org/2000/svg" width="16.871" height="16.029" viewBox="0 0 16.871 16.029">
  <path id="Path_327" data-name="Path 327" d="M2.109,7.012A5.1,5.1,0,0,1,7.381,2a5.1,5.1,0,0,1,5.272,5.009,5.1,5.1,0,0,1-5.272,5.009A5.1,5.1,0,0,1,2.109,7.012Zm12.97,8.716a1.057,1.057,0,0,0,1.476,0,.935.935,0,0,0,0-1.4L13.286,11.22a6.638,6.638,0,0,0,1.476-4.207A7.159,7.159,0,0,0,7.381,0,7.159,7.159,0,0,0,0,7.012a7.159,7.159,0,0,0,7.381,7.012,7.471,7.471,0,0,0,4.429-1.4Z" transform="translate(0 0)" fill="#696969"/>
</svg>
