<svg id="icon" xmlns="http://www.w3.org/2000/svg" width="100" height="100" viewBox="0 0 100 100">
  <g id="Rectangle_1222" data-name="Rectangle 1222" fill="#fff" stroke="#707070" stroke-width="1" opacity="0">
    <rect width="100" height="100" stroke="none"/>
    <rect x="0.5" y="0.5" width="99" height="99" fill="none"/>
  </g>
  <g id="Group_337" data-name="Group 337" transform="translate(-351.216 -85.69)">
    <g id="Group_299" data-name="Group 299" transform="translate(360.042 109.418)">
      <g id="Group_298" data-name="Group 298" transform="translate(0 0)">
        <g id="Group_297" data-name="Group 297">
          <g id="Symbol_1_0_Layer0_0_FILL" data-name="Symbol 1 0 Layer0 0 FILL">
            <path id="Path_340" data-name="Path 340" d="M390.9,130.064a1.047,1.047,0,0,1-.024.226l.024,7.637-26.1.024q-6.031-.119-4.425,5.627.143.511.3,1.011a45.244,45.244,0,0,0,10.647,17.759q8.4,8.684,22.3,13.954a4.234,4.234,0,0,0,2.724.119,4.29,4.29,0,0,0,2.225-1.546,4.175,4.175,0,0,0,.868-2.569l.012-41.919q.809-10.1-11-11.645a4.439,4.439,0,0,0-.547-.036H366.387a4.054,4.054,0,0,0-3.033,1.237,4.306,4.306,0,0,0,3.033,7.351H387.6q3.092.488,3.306,2.772m-13.429,26.3a36.547,36.547,0,0,1-6.828-9.826l20.257-.024-.024,19.247a47.9,47.9,0,0,1-13.406-9.4m63.866-30.333a4.308,4.308,0,0,0,0-6.09,4.054,4.054,0,0,0-3.033-1.237H416.787a4.427,4.427,0,0,0-.547.036q-11.812,1.546-11,11.645l.011,41.919a4.171,4.171,0,0,0,.869,2.569,4.288,4.288,0,0,0,2.224,1.546,4.233,4.233,0,0,0,2.724-.119q13.906-5.27,22.3-13.954a45.241,45.241,0,0,0,10.646-17.759q.155-.5.3-1.011,1.606-5.746-4.425-5.627l-26.1-.024.024-7.637a1.042,1.042,0,0,1-.024-.226q.214-2.284,3.307-2.772h21.21a4.136,4.136,0,0,0,3.033-1.261m-27.526,39.73-.024-19.247,20.257.024a36.559,36.559,0,0,1-6.827,9.826A47.889,47.889,0,0,1,413.814,165.762Z" transform="translate(-360.042 -118.703)" fill="#f05368"/>
          </g>
        </g>
      </g>
    </g>
    <g id="Group_302" data-name="Group 302" transform="translate(379.591 85.723)">
      <g id="Group_301" data-name="Group 301" transform="translate(0 0)">
        <g id="Group_300" data-name="Group 300">
          <g id="Symbol_2_0_Layer0_0_FILL" data-name="Symbol 2 0 Layer0 0 FILL">
            <path id="Path_341" data-name="Path 341" d="M430.848,88.922a1.884,1.884,0,1,0-2.7-2.629l-7.613,7.9a17.876,17.876,0,0,0-2.236-1.486l.012.011a19.049,19.049,0,0,0-18.176,0,19.362,19.362,0,0,0-2.189,1.451l-7.47-7.708a1.79,1.79,0,0,0-1.309-.583,1.772,1.772,0,0,0-1.332.535,1.853,1.853,0,0,0-.047,2.652l7.4,7.649a18.081,18.081,0,0,0-3.271,5.1,3.048,3.048,0,0,0,1.594,3.985,2.978,2.978,0,0,0,2.331.024,2.89,2.89,0,0,0,1.653-1.606,12.726,12.726,0,0,1,2.688-3.938q.262-.25.548-.512l-.047.048a13.119,13.119,0,0,1,2.438-1.8h.011a11.785,11.785,0,0,1,6.09-1.51,11.992,11.992,0,0,1,6.115,1.51l.012.012a12.743,12.743,0,0,1,2.843,2.177l.024.024a13.442,13.442,0,0,1,2.76,3.985,3.029,3.029,0,0,0,4,1.57,2.837,2.837,0,0,0,1.606-1.677,2.915,2.915,0,0,0-.036-2.32,18.4,18.4,0,0,0-3.259-5.043Z" transform="translate(-387.252 -85.723)" fill="#f05368"/>
          </g>
        </g>
      </g>
    </g>
    <g id="Group_305" data-name="Group 305" transform="translate(393.1 171.245)">
      <g id="Group_304" data-name="Group 304" transform="translate(0)">
        <g id="Group_303" data-name="Group 303">
          <g id="Symbol_3_0_Layer0_0_FILL" data-name="Symbol 3 0 Layer0 0 FILL">
            <path id="Path_342" data-name="Path 342" d="M425.508,208.535a2.338,2.338,0,0,0,.369-1.808,2.28,2.28,0,0,0-1.011-1.547,2.428,2.428,0,0,0-3.343.631,59.012,59.012,0,0,1-5.151,6.519q-.19.214-.392.428-.2-.213-.392-.428a55.3,55.3,0,0,1-5.127-6.519,2.294,2.294,0,0,0-1.547-1,2.247,2.247,0,0,0-1.8.369,2.272,2.272,0,0,0-1.011,1.535,2.241,2.241,0,0,0,.38,1.808q1.321,1.951,2.8,3.806a60.8,60.8,0,0,0,5.02,5.6,2.348,2.348,0,0,0,1.689.69,2.323,2.323,0,0,0,1.69-.69,62.014,62.014,0,0,0,5.031-5.6Q424.187,210.486,425.508,208.535Z" transform="translate(-406.054 -204.76)" fill="#f05368"/>
          </g>
        </g>
      </g>
    </g>
  </g>
</svg>
