<svg xmlns="http://www.w3.org/2000/svg" width="47.158" height="46.345" viewBox="0 0 47.158 46.345">
  <g id="Group_990" data-name="Group 990" transform="translate(-425.337 -78.581)">
    <path id="Shape" d="M24,.828A23.378,23.378,0,0,1,47.579,24,23.378,23.378,0,0,1,24,47.172,23.378,23.378,0,0,1,.421,24,23.378,23.378,0,0,1,24,.828Z" transform="translate(424.916 77.753)" fill="#f05368"/>
    <g id="Group_989" data-name="Group 989" transform="translate(437.812 88.709)">
      <g id="Group_299" data-name="Group 299" transform="translate(0 6.363)">
        <g id="Group_298" data-name="Group 298" transform="translate(0 0)">
          <g id="Group_297" data-name="Group 297">
            <g id="Symbol_1_0_Layer0_0_FILL" data-name="Symbol 1 0 Layer0 0 FILL">
              <path id="Path_340" data-name="Path 340" d="M368.33,121.754a.283.283,0,0,1-.006.061l.006,2.051-7.009.006q-1.62-.032-1.188,1.511.038.137.08.271a12.15,12.15,0,0,0,2.859,4.769,16.129,16.129,0,0,0,5.99,3.747,1.137,1.137,0,0,0,.731.032,1.152,1.152,0,0,0,.6-.415,1.121,1.121,0,0,0,.233-.69l0-11.257q.217-2.712-2.955-3.127a1.193,1.193,0,0,0-.147-.01h-5.779a1.088,1.088,0,0,0-.815.332,1.156,1.156,0,0,0,.815,1.974h5.7q.83.131.888.744m-3.606,7.063a9.815,9.815,0,0,1-1.834-2.639l5.44-.006-.006,5.169a12.863,12.863,0,0,1-3.6-2.524m17.151-8.146a1.157,1.157,0,0,0,0-1.636,1.089,1.089,0,0,0-.815-.332h-5.779a1.189,1.189,0,0,0-.147.01q-3.172.415-2.955,3.127l0,11.257a1.12,1.12,0,0,0,.233.69,1.152,1.152,0,0,0,.6.415,1.137,1.137,0,0,0,.731-.032,16.13,16.13,0,0,0,5.99-3.747,12.15,12.15,0,0,0,2.859-4.769q.042-.134.08-.271.431-1.543-1.188-1.511l-7.009-.006.006-2.051a.279.279,0,0,1-.006-.061q.058-.613.888-.744h5.7a1.111,1.111,0,0,0,.815-.339m-7.392,10.67-.006-5.169,5.44.006a9.818,9.818,0,0,1-1.833,2.639A12.861,12.861,0,0,1,374.482,131.341Z" transform="translate(-360.042 -118.703)" fill="#fff"/>
            </g>
          </g>
        </g>
      </g>
      <g id="Group_302" data-name="Group 302" transform="translate(5.25 0)">
        <g id="Group_301" data-name="Group 301" transform="translate(0 0)">
          <g id="Group_300" data-name="Group 300">
            <g id="Symbol_2_0_Layer0_0_FILL" data-name="Symbol 2 0 Layer0 0 FILL">
              <path id="Path_341" data-name="Path 341" d="M398.959,86.582a.506.506,0,1,0-.725-.706L396.19,88a4.8,4.8,0,0,0-.6-.4l0,0a5.116,5.116,0,0,0-4.881,0,5.2,5.2,0,0,0-.588.39l-2.006-2.07a.5.5,0,1,0-.722.7l1.987,2.054a4.857,4.857,0,0,0-.878,1.37.819.819,0,0,0,.428,1.07.8.8,0,0,0,.626.006A.776.776,0,0,0,390,90.69a3.417,3.417,0,0,1,.722-1.058l.147-.137-.013.013a3.524,3.524,0,0,1,.655-.483h0a3.165,3.165,0,0,1,1.636-.406,3.22,3.22,0,0,1,1.642.406l0,0a3.421,3.421,0,0,1,.763.585l.006.006a3.61,3.61,0,0,1,.741,1.07.814.814,0,0,0,1.073.422.762.762,0,0,0,.431-.45.782.782,0,0,0-.01-.623,4.941,4.941,0,0,0-.875-1.354Z" transform="translate(-387.252 -85.723)" fill="#fff"/>
            </g>
          </g>
        </g>
      </g>
      <g id="Group_305" data-name="Group 305" transform="translate(8.878 22.967)">
        <g id="Group_304" data-name="Group 304" transform="translate(0)">
          <g id="Group_303" data-name="Group 303">
            <g id="Symbol_3_0_Layer0_0_FILL" data-name="Symbol 3 0 Layer0 0 FILL">
              <path id="Path_342" data-name="Path 342" d="M411.278,205.774a.628.628,0,0,0,.1-.485.612.612,0,0,0-.271-.415.652.652,0,0,0-.9.169,15.848,15.848,0,0,1-1.383,1.751q-.051.058-.105.115-.054-.057-.105-.115a14.85,14.85,0,0,1-1.377-1.751.616.616,0,0,0-.415-.268.6.6,0,0,0-.482.1.61.61,0,0,0-.271.412.6.6,0,0,0,.1.486q.355.524.751,1.022a16.32,16.32,0,0,0,1.348,1.5.631.631,0,0,0,.454.185.624.624,0,0,0,.454-.185,16.636,16.636,0,0,0,1.351-1.5Q410.924,206.3,411.278,205.774Z" transform="translate(-406.054 -204.76)" fill="#fff"/>
            </g>
          </g>
        </g>
      </g>
    </g>
  </g>
</svg>
