<svg xmlns="http://www.w3.org/2000/svg" width="25" height="25" viewBox="0 0 25 25">
  <g id="Group_951" data-name="Group 951" transform="translate(-244 -639)">
    <rect id="Rectangle_1434" data-name="Rectangle 1434" width="25" height="25" transform="translate(244 639)" fill="#e5e5e5" opacity="0"/>
    <g id="Group_926" data-name="Group 926" transform="translate(-437.314 143.95)">
      <g id="Group_925" data-name="Group 925" transform="translate(685.314 495.05)">
        <g id="Group_924" data-name="Group 924" transform="translate(0 0)">
          <g id="Symbol_68_0_Layer0_0_FILL" data-name="Symbol 68 0 Layer0 0 FILL">
            <path id="Path_594" data-name="Path 594" d="M697.281,523.266a1.163,1.163,0,0,0-.368-.573.978.978,0,0,0-.655-.245,1.119,1.119,0,0,0-.655.164.98.98,0,0,0-.43.532q-2.824,6.877-9.067,8.9a1.138,1.138,0,0,0-.737,1.412,1.136,1.136,0,0,0,.553.655,1.106,1.106,0,0,0,.86.061,15.77,15.77,0,0,0,8.841-7.02,12,12,0,0,1-2.251,7.266,1.025,1.025,0,0,0-.164.839,1,1,0,0,0,.45.716,1.09,1.09,0,0,0,.839.184,1.176,1.176,0,0,0,.716-.471A14.3,14.3,0,0,0,697.281,523.266Z" transform="translate(-685.314 -511.232)" fill="#868686"/>
            <path id="Path_595" data-name="Path 595" d="M704.283,495.05l-1.208,3.643-4.175.389,3.111,2.722-.982,3.97,3.234-2.108,3.418,2.169-1-4.093,3.07-2.62-3.991-.348Z" transform="translate(-693.339 -495.05)" fill="#aece41"/>
          </g>
        </g>
      </g>
    </g>
  </g>
</svg>
