<svg xmlns="http://www.w3.org/2000/svg" width="64" height="64" viewBox="0 0 64 64">
  <g id="Group_353" data-name="Group 353" transform="translate(-1146 -602)">
    <rect id="Rectangle_1225" data-name="Rectangle 1225" width="64" height="64" rx="6" transform="translate(1146 602)" fill="#bebebe"/>
    <g id="Group_335" data-name="Group 335" transform="translate(1157.322 622.072)">
      <g id="Group_334" data-name="Group 334">
        <path id="Path_355" data-name="Path 355" d="M39.924,114.738a1.571,1.571,0,0,0-1.411-.058l-9.5,4.342v-3.156a4.176,4.176,0,0,0-4.351-3.975H4.351A4.176,4.176,0,0,0,0,115.865v15.9a4.176,4.176,0,0,0,4.351,3.975H24.657a4.176,4.176,0,0,0,4.351-3.975v-3.156l9.5,4.349a1.517,1.517,0,0,0,1.946-.593,1.232,1.232,0,0,0,.153-.6v-15.9A1.3,1.3,0,0,0,39.924,114.738ZM26.107,131.765a1.392,1.392,0,0,1-1.45,1.325H4.351a1.392,1.392,0,0,1-1.45-1.325v-15.9a1.392,1.392,0,0,1,1.45-1.325H24.657a1.392,1.392,0,0,1,1.45,1.325v15.9Zm11.6-2.144-8.7-3.975v-3.662l8.7-3.975Z" transform="translate(0 -111.89)" fill="#fff"/>
      </g>
    </g>
  </g>
</svg>
