<svg xmlns="http://www.w3.org/2000/svg" width="90" height="90" viewBox="0 0 90 90">
  <g id="icon-create_a_campaign" data-name="icon-create a campaign" transform="translate(0 0)">
    <path id="Path_254" data-name="Path 254" d="M87.329,30.131a2.637,2.637,0,0,0,2.147-4.213l-6.512-8.726,3.5-10.311a2.637,2.637,0,0,0-3.344-3.344l-10.311,3.5L64.081.523a2.637,2.637,0,0,0-4.213,2.147l.139,10.887-8.889,6.286a2.637,2.637,0,0,0,.74,4.671L59.41,26.86,37.737,48.532l-1.865-1.865a2.637,2.637,0,0,0-3.729,0L2.313,76.5A7.91,7.91,0,0,0,13.5,87.686L43.331,57.855a2.637,2.637,0,0,0,0-3.729l-1.865-1.865L63.138,30.589l2.348,7.552a2.637,2.637,0,0,0,4.671.74l6.286-8.889ZM9.771,83.957a2.637,2.637,0,0,1-3.729-3.729L34.009,52.261l3.729,3.729ZM72.938,25.815l-4,5.659-2.057-6.619a2.637,2.637,0,0,0-1.735-1.735l-6.619-2.057,5.659-4A2.637,2.637,0,0,0,65.3,14.875l-.089-6.931,5.555,4.145a2.637,2.637,0,0,0,2.424.384l6.564-2.226-2.226,6.564a2.637,2.637,0,0,0,.384,2.424l4.145,5.555L75.124,24.7A2.638,2.638,0,0,0,72.938,25.815Z" transform="translate(0 0.001)" fill="#696969"/>
    <path id="Path_255" data-name="Path 255" d="M435.184,295.273h-2.637v-2.637a2.637,2.637,0,1,0-5.274,0v2.637h-2.636a2.637,2.637,0,1,0,0,5.273h2.636v2.637a2.637,2.637,0,1,0,5.274,0v-2.637h2.637a2.637,2.637,0,1,0,0-5.273Z" transform="translate(-347.82 -239.023)" fill="#696969"/>
    <path id="Path_256" data-name="Path 256" d="M133.637,145.273a2.637,2.637,0,0,0,0,5.273h2.637v2.637a2.637,2.637,0,0,0,5.273,0v-2.637h2.637a2.637,2.637,0,1,0,0-5.273h-2.637v-2.637a2.637,2.637,0,1,0-5.273,0v2.637Z" transform="translate(-107.973 -115.391)" fill="#696969"/>
    <path id="Path_257" data-name="Path 257" d="M203.637,10.547h2.637v2.637a2.637,2.637,0,0,0,5.273,0V10.547h2.637a2.637,2.637,0,0,0,0-5.273h-2.637V2.637a2.637,2.637,0,0,0-5.273,0V5.273h-2.637a2.637,2.637,0,1,0,0,5.273Z" transform="translate(-165.668)" fill="#696969"/>
    <ellipse id="Ellipse_70" data-name="Ellipse 70" cx="1.773" cy="3.545" rx="1.773" ry="3.545" transform="translate(59.944 53.812)" fill="#696969"/>
    <ellipse id="Ellipse_71" data-name="Ellipse 71" cx="5.318" cy="3.9" rx="5.318" ry="3.9" transform="translate(74.125 35.376)" fill="#696969"/>
    <ellipse id="Ellipse_72" data-name="Ellipse 72" cx="1.773" cy="1.773" rx="1.773" ry="1.773" transform="translate(23.78 14.104)" fill="#696969"/>
  </g>
</svg>
