<svg id="Group_446" data-name="Group 446" xmlns="http://www.w3.org/2000/svg" width="49.133" height="66.96" viewBox="0 0 49.133 66.96">
  <path id="Path_238" data-name="Path 238" d="M184.838,462.275a5.673,5.673,0,1,1-5.669-5.885,5.78,5.78,0,0,1,5.669,5.885Zm0,0" transform="translate(-169.721 -416.894)" fill="#fff"/>
  <path id="Path_239" data-name="Path 239" d="M274.838,484.775a5.673,5.673,0,1,1-5.669-5.885,5.78,5.78,0,0,1,5.669,5.885Zm0,0" transform="translate(-244.603 -435.471)" fill="#fff"/>
  <path id="Path_240" data-name="Path 240" d="M364.838,462.275a5.673,5.673,0,1,1-5.669-5.885,5.78,5.78,0,0,1,5.669,5.885Zm0,0" transform="translate(-319.485 -416.894)" fill="#fff"/>
  <path id="Path_241" data-name="Path 241" d="M250.449,546.39A9.644,9.644,0,0,0,241,556.2a1.925,1.925,0,0,0,1.89,1.962h15.118a1.925,1.925,0,0,0,1.89-1.962,9.645,9.645,0,0,0-9.449-9.808Zm0,0" transform="translate(-225.882 -491.201)" fill="#fff"/>
  <path id="Path_242" data-name="Path 242" d="M198.243,229.89H152.89a1.925,1.925,0,0,0-1.89,1.962v23.8a1.925,1.925,0,0,0,1.89,1.962h5.669V263.5a1.963,1.963,0,0,0,1.167,1.813,1.834,1.834,0,0,0,2.059-.426l7.006-7.272h13.552l7.006,7.272a1.839,1.839,0,0,0,2.059.426,1.963,1.963,0,0,0,1.167-1.813v-5.885h5.669a1.925,1.925,0,0,0,1.89-1.962v-23.8a1.925,1.925,0,0,0-1.89-1.962Zm-34.015,15.824a1.963,1.963,0,1,1,1.89-1.962,1.927,1.927,0,0,1-1.89,1.962Zm11.338,0a1.963,1.963,0,1,1,1.89-1.962,1.927,1.927,0,0,1-1.89,1.962Zm11.338,0a1.963,1.963,0,1,1,1.89-1.962,1.927,1.927,0,0,1-1.89,1.962Zm0,0" transform="translate(-151 -229.89)" fill="#fff"/>
  <path id="Path_243" data-name="Path 243" d="M353.3,523.89a9.244,9.244,0,0,0-6.853,3.1,13.772,13.772,0,0,1,4.773,8.673h9.639a1.925,1.925,0,0,0,1.89-1.962,9.645,9.645,0,0,0-9.449-9.809Zm0,0" transform="translate(-313.618 -472.624)" fill="#fff"/>
  <path id="Path_244" data-name="Path 244" d="M160.449,523.89A9.645,9.645,0,0,0,151,533.7a1.925,1.925,0,0,0,1.89,1.962h9.64a13.772,13.772,0,0,1,4.773-8.673,9.244,9.244,0,0,0-6.854-3.1Zm0,0" transform="translate(-151 -472.624)" fill="#fff"/>
</svg>
