<svg id="icon-cart" xmlns="http://www.w3.org/2000/svg" width="90" height="90" viewBox="0 0 90 90">
  <rect id="Rectangle_1095" data-name="Rectangle 1095" width="90" height="90" fill="red" opacity="0"/>
  <g id="Group_148" data-name="Group 148" transform="translate(0 4.43)">
    <g id="Group_80" data-name="Group 80" transform="translate(0 0)">
      <g id="Group_84" data-name="Group 84" transform="translate(59.398 59.287)">
        <g id="Group_83" data-name="Group 83">
          <path id="Path_95" data-name="Path 95" d="M352.649,362.612a11.1,11.1,0,1,0,11.1,11.1A11.115,11.115,0,0,0,352.649,362.612Zm0,15.543a4.441,4.441,0,1,1,4.441-4.441A4.445,4.445,0,0,1,352.649,378.155Z" transform="translate(-341.547 -362.612)" fill="#696969"/>
        </g>
      </g>
      <g id="Group_86" data-name="Group 86" transform="translate(0 0)">
        <g id="Group_85" data-name="Group 85">
          <path id="Path_96" data-name="Path 96" d="M88.333,38.082A3.327,3.327,0,0,0,85.711,36.8H20.559l-3-12.542a3.332,3.332,0,0,0-3.24-2.557H3.331a3.331,3.331,0,1,0,0,6.661h8.362L22.518,73.66a3.331,3.331,0,0,0,3.24,2.557H77.606a3.33,3.33,0,0,0,3.233-2.529l8.1-32.752A3.336,3.336,0,0,0,88.333,38.082ZM75,69.555H28.387l-6.235-26.09h59.3Z" transform="translate(0 -21.705)" fill="#696969"/>
        </g>
      </g>
      <g id="Group_88" data-name="Group 88" transform="translate(19.096 59.287)">
        <g id="Group_87" data-name="Group 87">
          <path id="Path_97" data-name="Path 97" d="M120.908,362.612a11.1,11.1,0,1,0,11.1,11.1A11.115,11.115,0,0,0,120.908,362.612Zm0,15.543a4.441,4.441,0,1,1,4.441-4.441A4.445,4.445,0,0,1,120.908,378.155Z" transform="translate(-109.806 -362.612)" fill="#696969"/>
        </g>
      </g>
    </g>
  </g>
</svg>
