<svg xmlns="http://www.w3.org/2000/svg" width="58.883" height="59.431" viewBox="0 0 58.883 59.431">
  <path id="Path_414" data-name="Path 414" d="M13.232,37.38l3.054,3.083L21.5,35.146A21.519,21.519,0,0,1,17.754,14.4L24.7,21.408a13.008,13.008,0,0,0,23.616,7.719l-7.88-7.956-5.465,5.517L14.644,6.173v4.652H11.08V.031H21.772v3.6H17.164L34.967,21.6l5.465-5.517,9.608,9.7a13.225,13.225,0,0,0-3.091-13.639A12.939,12.939,0,0,0,29.639,11.13L23.877,5.313a21,21,0,0,1,28.81,1.038A21.4,21.4,0,0,1,37.731,42.8a20.875,20.875,0,0,1-13.719-5.1l-5.2,5.3,3.067,3.1L8.641,59.462,0,50.739Z" transform="translate(0 -0.031)" fill="#fff"/>
</svg>
