<svg xmlns="http://www.w3.org/2000/svg" width="25" height="25.146" viewBox="0 0 25 25.146">
  <g id="Group_952" data-name="Group 952" transform="translate(-244 -678.999)">
    <rect id="Rectangle_1437" data-name="Rectangle 1437" width="25" height="25" transform="translate(244 679)" fill="#e5e5e5" opacity="0"/>
    <g id="Group_929" data-name="Group 929" transform="translate(-433.973 56.906)">
      <g id="Group_928" data-name="Group 928" transform="translate(680.973 622.093)">
        <g id="Group_927" data-name="Group 927" transform="translate(0 0)">
          <g id="Symbol_48_0_Layer0_0_FILL" data-name="Symbol 48 0 Layer0 0 FILL">
            <path id="Path_596" data-name="Path 596" d="M681.506,639.656a1.728,1.728,0,0,0-.533,1.218v6.467a9.482,9.482,0,0,0,9.473,9.434A8.913,8.913,0,0,0,697.1,654h0a8.913,8.913,0,0,0,2.777-6.657v-6.467a1.6,1.6,0,0,0-.494-1.218,1.751,1.751,0,0,0-2.968,1.218v6.467a5.555,5.555,0,0,1-1.75,4.185l-.038.038a5.555,5.555,0,0,1-4.185,1.75,5.753,5.753,0,0,1-4.261-1.75,5.812,5.812,0,0,1-1.75-4.223v-6.467a1.6,1.6,0,0,0-.494-1.218,1.658,1.658,0,0,0-2.435,0Z" transform="translate(-680.973 -631.63)" fill="#878787"/>
            <path id="Path_597" data-name="Path 597" d="M696.545,622.093h-.038a4.677,4.677,0,0,0-4.641,4.641v3.082a1.109,1.109,0,0,0,.342.761,1.066,1.066,0,0,0,1.826-.761v-3.082a2.467,2.467,0,0,1,2.473-2.472h.038a2.434,2.434,0,0,1,1.75.722,2.305,2.305,0,0,1,.685,1.75v3.082a1.106,1.106,0,0,0,.342.761,1.065,1.065,0,0,0,1.826-.761v-3.082a4.4,4.4,0,0,0-1.332-3.272A4.529,4.529,0,0,0,696.545,622.093Z" transform="translate(-687.073 -622.093)" fill="#1aadbb"/>
          </g>
        </g>
      </g>
    </g>
  </g>
</svg>
