<svg xmlns="http://www.w3.org/2000/svg" width="25" height="25.001" viewBox="0 0 25 25.001">
  <g id="Group_954" data-name="Group 954" transform="translate(-244 -751.999)">
    <rect id="Rectangle_1440" data-name="Rectangle 1440" width="25" height="25" transform="translate(244 752)" fill="#e5e5e5" opacity="0"/>
    <g id="Group_934" data-name="Group 934" transform="translate(-438.055 -120.554)">
      <g id="Group_933" data-name="Group 933" transform="translate(683.054 872.553)">
        <g id="Group_932" data-name="Group 932">
          <g id="Symbol_57_0_Layer0_0_FILL" data-name="Symbol 57 0 Layer0 0 FILL">
            <path id="Path_600" data-name="Path 600" d="M703.237,903.171v-.039a9.39,9.39,0,0,0-6.909-2.872h-3.493a9.74,9.74,0,0,0-9.781,9.82v1.087a1.478,1.478,0,0,0,.427,1.087,1.54,1.54,0,0,0,1.126.466,1.592,1.592,0,0,0,1.553-1.552V910.08a6.692,6.692,0,0,1,6.676-6.715h3.493a6.312,6.312,0,0,1,4.7,1.979h.039a6.44,6.44,0,0,1,1.979,4.735v1.087a1.477,1.477,0,0,0,.427,1.087,1.539,1.539,0,0,0,1.125.466,1.592,1.592,0,0,0,1.553-1.552V910.08A9.326,9.326,0,0,0,703.237,903.171Z" transform="translate(-683.054 -887.956)" fill="#878787"/>
            <path id="Path_601" data-name="Path 601" d="M704.76,872.9a2.918,2.918,0,0,0-.349-.194,3.968,3.968,0,0,0-1.126-.155h-3.493a3.964,3.964,0,0,0-1.164.155,2.894,2.894,0,0,0-.349.194,3.925,3.925,0,0,0-.893.97v.039l-1.669,2.911-.039.078a2.671,2.671,0,0,0-.388,1.4,2.24,2.24,0,0,0,.388,1.281,1.163,1.163,0,0,1,.039.116l1.669,2.95c.03.059.056.111.078.155a3.957,3.957,0,0,0,.815.776.876.876,0,0,0,.233.155,3.053,3.053,0,0,0,1.281.272h3.493a2.969,2.969,0,0,0,1.2-.272.666.666,0,0,0,.271-.155,4.315,4.315,0,0,0,.776-.7.835.835,0,0,0,.155-.233l1.669-3.066a2.273,2.273,0,0,0,.388-1.281,2.585,2.585,0,0,0-.465-1.475l.077.078-1.669-2.989a.506.506,0,0,1-.078-.116,4.335,4.335,0,0,0-.854-.893m.466,5.318a.087.087,0,0,1,.039.078h-.039a.248.248,0,0,1-.078.116l-1.669,3.066a.121.121,0,0,1-.078,0,.2.2,0,0,1-.116.039h-3.493a.284.284,0,0,1-.155-.039.39.39,0,0,1-.116-.078l-1.669-3.028a.423.423,0,0,1-.078-.077h0a.374.374,0,0,1,0-.078.113.113,0,0,0,.039-.078l1.708-2.989h0a.237.237,0,0,0,.078-.116h3.843c.031.046.057.084.078.116l1.669,2.95A.572.572,0,0,1,705.226,878.22Z" transform="translate(-689.855 -872.553)" fill="#f05368"/>
          </g>
        </g>
      </g>
    </g>
  </g>
</svg>
