<svg xmlns="http://www.w3.org/2000/svg" width="90.447" height="90.2" viewBox="0 0 90.447 90.2">
  <g id="icon-settings" transform="translate(0.447)">
    <rect id="Rectangle_1102" data-name="Rectangle 1102" width="89.559" height="88.454" transform="translate(-0.448 1.746)" fill="red" opacity="0"/>
    <g id="Group_154" data-name="Group 154" transform="translate(0.593 1.871)">
      <g id="Group_74" data-name="Group 74">
        <path id="Path_84" data-name="Path 84" d="M46.875,88.129H41.339a8.126,8.126,0,0,1-8.121-8.113V78.145a35.631,35.631,0,0,1-5.53-2.293L26.36,77.178a8.126,8.126,0,0,1-11.486,0l-3.913-3.909a8.107,8.107,0,0,1,0-11.475l1.326-1.325a35.562,35.562,0,0,1-2.3-5.525H8.121A8.126,8.126,0,0,1,0,46.83V41.3a8.126,8.126,0,0,1,8.121-8.113H9.994a35.569,35.569,0,0,1,2.3-5.525l-1.327-1.326a8.108,8.108,0,0,1,0-11.475l3.913-3.909a8.125,8.125,0,0,1,11.486,0l1.326,1.325a35.665,35.665,0,0,1,5.53-2.293V8.113A8.126,8.126,0,0,1,41.339,0h5.536A8.126,8.126,0,0,1,55,8.113V9.984a35.631,35.631,0,0,1,5.53,2.293l1.327-1.326a8.126,8.126,0,0,1,11.486,0l3.913,3.909a8.107,8.107,0,0,1,0,11.475l-1.326,1.325a35.563,35.563,0,0,1,2.3,5.525h1.873A8.126,8.126,0,0,1,88.213,41.3V46.83a8.126,8.126,0,0,1-8.121,8.113H78.22a35.57,35.57,0,0,1-2.3,5.525l1.327,1.326a8.108,8.108,0,0,1,0,11.475l-3.913,3.909a8.125,8.125,0,0,1-11.486,0l-1.326-1.325A35.664,35.664,0,0,1,55,78.145v1.871A8.126,8.126,0,0,1,46.875,88.129Zm-18.323-17.7a30.479,30.479,0,0,0,7.9,3.275,2.582,2.582,0,0,1,1.939,2.5v3.812a2.954,2.954,0,0,0,2.952,2.949h5.536a2.954,2.954,0,0,0,2.952-2.949V76.2a2.582,2.582,0,0,1,1.939-2.5,30.479,30.479,0,0,0,7.9-3.275,2.586,2.586,0,0,1,3.143.4l2.7,2.7a2.953,2.953,0,0,0,4.174,0L73.6,69.616a2.947,2.947,0,0,0,0-4.17l-2.7-2.7a2.58,2.58,0,0,1-.4-3.14,30.413,30.413,0,0,0,3.278-7.889,2.584,2.584,0,0,1,2.5-1.937h3.816a2.954,2.954,0,0,0,2.952-2.949V41.3a2.954,2.954,0,0,0-2.952-2.949H76.277a2.584,2.584,0,0,1-2.5-1.937A30.419,30.419,0,0,0,70.5,28.525a2.58,2.58,0,0,1,.4-3.14l2.7-2.7a2.946,2.946,0,0,0,0-4.17L69.683,14.6a2.953,2.953,0,0,0-4.174,0l-2.7,2.7a2.586,2.586,0,0,1-3.143.4,30.48,30.48,0,0,0-7.9-3.275,2.582,2.582,0,0,1-1.939-2.5V8.113a2.954,2.954,0,0,0-2.952-2.949H41.339a2.954,2.954,0,0,0-2.952,2.949v3.812a2.582,2.582,0,0,1-1.939,2.5,30.48,30.48,0,0,0-7.9,3.275,2.587,2.587,0,0,1-3.143-.4l-2.7-2.7a2.953,2.953,0,0,0-4.174,0l-3.916,3.912a2.947,2.947,0,0,0,0,4.17l2.7,2.7a2.58,2.58,0,0,1,.4,3.14,30.412,30.412,0,0,0-3.278,7.889,2.584,2.584,0,0,1-2.5,1.937H8.121A2.954,2.954,0,0,0,5.169,41.3V46.83a2.954,2.954,0,0,0,2.952,2.949h3.816a2.584,2.584,0,0,1,2.5,1.937A30.419,30.419,0,0,0,17.717,59.6a2.58,2.58,0,0,1-.4,3.14l-2.7,2.7a2.946,2.946,0,0,0,0,4.17l3.915,3.912a2.953,2.953,0,0,0,4.174,0l2.7-2.7a2.6,2.6,0,0,1,3.143-.4Z" fill="#696969"/>
        <path id="Path_85" data-name="Path 85" d="M165.974,187.307a21.353,21.353,0,1,1,21.374-21.353A21.388,21.388,0,0,1,165.974,187.307Zm0-36.956a15.6,15.6,0,1,0,15.618,15.6,15.628,15.628,0,0,0-15.618-15.6Z" transform="translate(-121.866 -121.889)" fill="#696969"/>
      </g>
    </g>
  </g>
</svg>
