<svg id="icon-message" xmlns="http://www.w3.org/2000/svg" width="90" height="90" viewBox="0 0 90 90">
  <rect id="Rectangle_1103" data-name="Rectangle 1103" width="90" height="90" fill="red" opacity="0"/>
  <g id="Group_155" data-name="Group 155" transform="translate(0 1.992)">
    <path id="Path_80" data-name="Path 80" d="M125.726,440.209h29.31a4.813,4.813,0,1,0,0-9.626h-29.31a4.813,4.813,0,1,0,0,9.626Z" transform="translate(-99.673 -408.957)" fill="#696969"/>
    <path id="Path_81" data-name="Path 81" d="M119.059,508.876h19.026a4.813,4.813,0,1,0,0-9.626H119.059a4.813,4.813,0,1,0,0,9.626Z" transform="translate(-94.719 -459.997)" fill="#696969"/>
    <path id="Path_82" data-name="Path 82" d="M105.781,346.333H59.159a20.833,20.833,0,0,0-20.826,20.792V395.7c0,.641.034,1.274.091,1.9l.046,21.959.013,6a4.872,4.872,0,0,0,4.821,4.813,5.236,5.236,0,0,0,3.116-1.2,7.453,7.453,0,0,0,.979-.641L62.935,416.5h42.846A20.833,20.833,0,0,0,126.607,395.7V367.125A20.833,20.833,0,0,0,105.781,346.333ZM116.836,395.7a11.059,11.059,0,0,1-11.056,11.038H60.055L48.28,415.767l-.176.135-.087-25.759.086-.115v-22.9a11.059,11.059,0,0,1,11.056-11.038h46.622a11.059,11.059,0,0,1,11.056,11.038Z" transform="translate(-38.333 -346.333)" fill="#696969"/>
  </g>
</svg>
