<svg id="icon-Donate" xmlns="http://www.w3.org/2000/svg" width="90" height="90" viewBox="0 0 90 90">
  <rect id="Rectangle_1091" data-name="Rectangle 1091" width="90" height="90" fill="red" opacity="0"/>
  <g id="Group_263" data-name="Group 263" transform="translate(0 -64)">
    <g id="Group_145" data-name="Group 145" transform="translate(0.059 64)">
      <g id="Group_78" data-name="Group 78" transform="translate(0)">
        <path id="Path_91" data-name="Path 91" d="M118.736,46.479c2.094,1.915,4.259,3.9,6.559,6.056a2.41,2.41,0,0,0,3.35,0c2.3-2.161,4.465-4.141,6.559-6.055,3.639-3.328,6.781-6.2,9.508-8.991C150.005,32.076,154.9,25.932,154.9,17.7A19.415,19.415,0,0,0,150.73,5.357,14.154,14.154,0,0,0,139.658,0c-4.8,0-8.966,2.461-12.04,7.117-.231.349-.446.7-.648,1.044-.2-.346-.417-.695-.648-1.044C123.248,2.461,119.085,0,114.281,0A14.154,14.154,0,0,0,103.21,5.357,19.416,19.416,0,0,0,99.036,17.7c0,5.086,1.821,9.778,5.73,14.769C108.177,36.821,113.07,41.3,118.736,46.479ZM114.281,5.543c3.086,0,5.71,1.574,7.8,4.679a19.369,19.369,0,0,1,2.424,5.206,2.511,2.511,0,0,0,4.929,0c.025-.1,2.614-9.885,10.224-9.885,5.776,0,10.131,5.226,10.131,12.155,0,5.021-2.408,9.439-8.588,15.759-2.624,2.683-5.716,5.511-9.3,8.786-1.593,1.457-3.227,2.951-4.934,4.538-1.708-1.587-3.342-3.082-4.935-4.539-11.152-10.2-17.884-16.358-17.884-24.545C104.15,10.769,108.506,5.543,114.281,5.543Z" transform="translate(-80.744 0)" fill="#696969"/>
        <path id="Path_92" data-name="Path 92" d="M89.977,305.448a8.126,8.126,0,0,0-7.9-8.314,7.753,7.753,0,0,0-5.784,2.648l-7.743,8.744A7.976,7.976,0,0,0,61,302.677H48.829A6.8,6.8,0,0,1,44.2,300.84a17.793,17.793,0,0,0-24.165-.176,7.791,7.791,0,0,0-6.458-3.53H2.69a2.706,2.706,0,0,0-2.634,2.771v33.257a2.706,2.706,0,0,0,2.634,2.771H13.579a7.726,7.726,0,0,0,5.94-2.84l1.56.461a57.79,57.79,0,0,0,16.4,2.378H61a18.237,18.237,0,0,0,14.753-7.76L88.4,310.434h0A8.532,8.532,0,0,0,89.977,305.448Zm-76.4,24.943H5.325V302.677H13.58a2.709,2.709,0,0,1,2.634,2.771V327.62A2.709,2.709,0,0,1,13.58,330.391Zm57.957-5.543A13.025,13.025,0,0,1,61,330.391H37.476a52.766,52.766,0,0,1-14.97-2.171l-1.03-.3c0-.1.007-.2.007-.3V306.7l1.836-1.7a12.714,12.714,0,0,1,17.4,0,11.92,11.92,0,0,0,8.106,3.218H61a2.775,2.775,0,0,1,0,5.543H42.276a2.775,2.775,0,0,0,0,5.543H62.765a7.752,7.752,0,0,0,5.783-2.647l11.6-13.1a2.551,2.551,0,0,1,1.928-.883,2.709,2.709,0,0,1,2.634,2.771,2.84,2.84,0,0,1-.524,1.659h0Z" transform="translate(-0.056 -245.993)" fill="#696969"/>
      </g>
    </g>
  </g>
</svg>
