<svg id="icon-NGO" xmlns="http://www.w3.org/2000/svg" xmlns:xlink="http://www.w3.org/1999/xlink" width="90" height="90" viewBox="0 0 90 90">
  <defs>
    <clipPath id="clip-path">
      <rect id="Rectangle_1068" data-name="Rectangle 1068" width="90" height="84" transform="translate(0 -0.462)" fill="#696969"/>
    </clipPath>
  </defs>
  <path id="Path_207" data-name="Path 207" d="M0,0H26V26H0Z" fill="red" opacity="0"/>
  <g id="Group_144" data-name="Group 144" transform="translate(0 3.462)">
    <g id="Group_81" data-name="Group 81" transform="translate(0 0)">
      <g id="Group_80" data-name="Group 80" transform="translate(0 0)" clip-path="url(#clip-path)">
        <path id="Path_93" data-name="Path 93" d="M126.834,226.462a8.518,8.518,0,0,0-2.372-.963,40.409,40.409,0,0,0-10.592-19.826q-.616-.633-1.256-1.233c.028-.1.057-.192.083-.29a9.1,9.1,0,0,0-.87-6.788,8.592,8.592,0,0,0-11.894-3.273,8.758,8.758,0,0,0-2,1.624,38.633,38.633,0,0,0-23.694,0A8.576,8.576,0,0,0,67.9,192.89a8.839,8.839,0,0,0-8.708,8.945,9.146,9.146,0,0,0,.379,2.607c-.425.4-.844.809-1.254,1.231a40.411,40.411,0,0,0-10.594,19.832,8.705,8.705,0,0,0-5.558,4.231,9.09,9.09,0,0,0,3.186,12.219,8.556,8.556,0,0,0,2.372.96,40.413,40.413,0,0,0,10.593,19.829c.411.422.831.831,1.256,1.233-.028.1-.057.192-.083.29a9.1,9.1,0,0,0,.87,6.787,8.671,8.671,0,0,0,7.555,4.471,8.484,8.484,0,0,0,4.339-1.2,8.778,8.778,0,0,0,2-1.624,38.641,38.641,0,0,0,23.694,0,8.576,8.576,0,0,0,6.342,2.825,8.838,8.838,0,0,0,8.708-8.945,9.149,9.149,0,0,0-.379-2.607q.638-.6,1.254-1.231a40.406,40.406,0,0,0,10.594-19.835,8.7,8.7,0,0,0,5.558-4.228,9.089,9.089,0,0,0-3.187-12.219Zm-19.125,40.12a3.424,3.424,0,1,1-3.423-3.516,3.474,3.474,0,0,1,3.423,3.516Zm1.843-7.117a8.511,8.511,0,0,0-5.266-1.828,8.838,8.838,0,0,0-8.707,8.945,9.267,9.267,0,0,0,.074,1.145,33.157,33.157,0,0,1-19.12,0,9.081,9.081,0,0,0-1.094-5.617,8.592,8.592,0,0,0-11.895-3.274,8.912,8.912,0,0,0-.914.626,35.167,35.167,0,0,1-9.575-17,8.732,8.732,0,0,0,4.19-3.777,9.091,9.091,0,0,0-3.187-12.22,8.714,8.714,0,0,0-1-.507,35.171,35.171,0,0,1,9.576-17A8.512,8.512,0,0,0,67.9,210.78a8.839,8.839,0,0,0,8.708-8.945,9.112,9.112,0,0,0-.074-1.145,33.152,33.152,0,0,1,19.121,0,9.079,9.079,0,0,0,1.094,5.618,8.67,8.67,0,0,0,7.555,4.47,8.475,8.475,0,0,0,4.339-1.2,8.663,8.663,0,0,0,.915-.626,35.173,35.173,0,0,1,9.575,17,8.737,8.737,0,0,0-4.19,3.777,9.09,9.09,0,0,0,3.187,12.219,8.561,8.561,0,0,0,1,.508,35.162,35.162,0,0,1-9.576,17ZM69.61,269.626a3.378,3.378,0,0,1-4.675-1.286,3.574,3.574,0,0,1,1.253-4.8,3.331,3.331,0,0,1,1.705-.47,3.408,3.408,0,0,1,2.97,1.757,3.574,3.574,0,0,1,.342,2.668,3.483,3.483,0,0,1-1.594,2.135ZM46.741,232.451a3.377,3.377,0,0,1,4.675-1.287,3.572,3.572,0,0,1,1.252,4.8,3.377,3.377,0,0,1-4.675,1.287,3.573,3.573,0,0,1-1.253-4.8Zm17.736-30.615A3.424,3.424,0,1,1,67.9,205.35a3.474,3.474,0,0,1-3.423-3.515Zm38.1-3.045a3.333,3.333,0,0,1,1.706-.47,3.408,3.408,0,0,1,2.97,1.757,3.576,3.576,0,0,1,.341,2.668A3.481,3.481,0,0,1,106,204.88a3.377,3.377,0,0,1-4.675-1.287,3.573,3.573,0,0,1-.342-2.668,3.484,3.484,0,0,1,1.594-2.135Zm18.194,38.463a3.572,3.572,0,0,1-1.252-4.8,3.408,3.408,0,0,1,2.969-1.757,3.331,3.331,0,0,1,1.706.47,3.573,3.573,0,0,1,1.253,4.8,3.378,3.378,0,0,1-4.675,1.286Zm0,0" transform="translate(-41 -192.51)" fill="#696969"/>
      </g>
    </g>
    <path id="Path_94" data-name="Path 94" d="M241.441,331.783a13.156,13.156,0,0,0,3.135-8.556,12.669,12.669,0,1,0-25.328,0,13.157,13.157,0,0,0,3.136,8.556A14.438,14.438,0,0,0,218,342.188v4.645h27.833v-4.645a14.443,14.443,0,0,0-4.388-10.406ZM223.314,341.4a8.926,8.926,0,0,1,3.424-6.308,12.31,12.31,0,0,0,10.349,0,8.926,8.926,0,0,1,3.424,6.308Zm1.219-18.177a7.382,7.382,0,1,1,7.379,7.581,7.49,7.49,0,0,1-7.379-7.581Zm0,0" transform="translate(-186.819 -288.607)" fill="#696969"/>
  </g>
</svg>
