<svg id="icon-home" xmlns="http://www.w3.org/2000/svg" width="90" height="90.313" viewBox="0 0 90 90.313">
  <path id="Path_207" data-name="Path 207" d="M0,0H90V90H0Z" transform="translate(0 0.313)" fill="#696969" opacity="0"/>
  <g id="Group_157" data-name="Group 157" transform="translate(0.304 -0.01)">
    <g id="Group_70" data-name="Group 70" transform="translate(0 0.01)">
      <path id="Path_79" data-name="Path 79" d="M88.473,38.353,47.751,1.333,47.362.98a3.737,3.737,0,0,0-.871-.592L46.449.369a3.742,3.742,0,0,0-3.2,0L43.2.387a3.738,3.738,0,0,0-.871.592l-.383.349L1.223,38.353a3.737,3.737,0,0,0,5.028,5.531l1.223-1.112V85.967A3.737,3.737,0,0,0,11.212,89.7H78.484a3.737,3.737,0,0,0,3.737-3.737V42.772l1.223,1.112a3.737,3.737,0,0,0,5.028-5.531ZM37.373,82.23V59.806a7.475,7.475,0,1,1,14.95,0V82.23Zm37.374,0H59.8V59.806a14.949,14.949,0,0,0-29.9,0V82.23H14.949V35.978L44.848,8.8l29.9,27.181Z" transform="translate(0 -0.009)" fill="#696969"/>
    </g>
  </g>
</svg>
