<svg id="Group_447" data-name="Group 447" xmlns="http://www.w3.org/2000/svg" width="65.943" height="63.232" viewBox="0 0 65.943 63.232">
  <ellipse id="Ellipse_61" data-name="Ellipse 61" cx="6.837" cy="6.902" rx="6.837" ry="6.902" transform="translate(41.274 1.513)" fill="#fff"/>
  <path id="Path_231" data-name="Path 231" d="M65.534,135.6,55.011,117.364a3,3,0,0,0-2.3-1.491H43.756a3,3,0,0,0-2.3,1.491L33.529,131.1l-8.8-15.25a3,3,0,0,0-2.61-1.507l-.057,0H13.6l-.057,0a3,3,0,0,0-2.61,1.507L.409,134.085a3.055,3.055,0,0,0,1.086,4.156,2.992,2.992,0,0,0,4.117-1.1l4.641-8.042v3.443l-2.077,15.11a2.111,2.111,0,0,0,2.077,2.408h0v9.249a3.244,3.244,0,0,0,3.061,3.282,3.191,3.191,0,0,0,3.293-3.205v-9.326h2.51v9.249a3.244,3.244,0,0,0,3.061,3.282,3.191,3.191,0,0,0,3.292-3.205v-9.326h0a2.11,2.11,0,0,0,2.077-2.408l-2.077-15.11v-3.333l4.577,7.932a9.74,9.74,0,0,0,1.972,2.609,2.992,2.992,0,0,0,4.117-1.1l4.51-7.816-.043,26.9a3.192,3.192,0,0,0,3.177,3.207h.044A3.192,3.192,0,0,0,47,157.742l-.044-16.232a1.291,1.291,0,0,1,1.171-1.308,1.26,1.26,0,0,1,1.338,1.264v16.2a3.245,3.245,0,0,0,3.061,3.282,3.191,3.191,0,0,0,3.293-3.2v-26.9l4.51,7.816a2.992,2.992,0,0,0,4.117,1.1A3.055,3.055,0,0,0,65.534,135.6Z" transform="translate(0 -99.364)" fill="#fff"/>
  <path id="Path_232" data-name="Path 232" d="M38.3,25.134l1.692-.152a1.656,1.656,0,0,0,1.469-1.973c-.29-1.479-.391-3.531.825-4.8,0,.053,0,.106,0,.16a6.837,6.837,0,1,0,13.674,0c0-.054,0-.107,0-.16,1.216,1.269,1.116,3.321.825,4.8a1.656,1.656,0,0,0,1.469,1.973l1.692.152a1.65,1.65,0,0,0,1.783-1.478c.233-2.189.192-5.473-1.034-6.777A5.827,5.827,0,0,0,55.193,15.2a6.806,6.806,0,0,0-12.146,0,5.827,5.827,0,0,0-5.495,1.679c-1.226,1.3-1.267,4.588-1.034,6.777A1.65,1.65,0,0,0,38.3,25.134Z" transform="translate(-31.156 -11.466)" fill="#fff"/>
</svg>
