<svg id="icon-profile_pic" data-name="icon-profile pic" xmlns="http://www.w3.org/2000/svg" width="90" height="90.313" viewBox="0 0 90 90.313">
  <rect id="Rectangle_1105" data-name="Rectangle 1105" width="90" height="90" fill="red" opacity="0"/>
  <path id="Path_214" data-name="Path 214" d="M62.044,17.067A44.933,44.933,0,0,0,30.9,94.444c.026.026.035.064.061.087.26.251.543.463.807.7.723.643,1.446,1.308,2.208,1.928.408.321.832.643,1.25.938.72.537,1.44,1.073,2.191,1.568.511.321,1.038.643,1.562.964.694.418,1.385.839,2.1,1.221.607.321,1.228.6,1.844.89.675.321,1.34.643,2.031.932s1.385.514,2.085.765,1.3.482,1.976.688c.758.228,1.536.4,2.307.594.643.157,1.266.337,1.928.466.887.177,1.787.289,2.686.411.556.077,1.1.186,1.661.241,1.472.145,2.956.225,4.453.225s2.982-.08,4.454-.225c.562-.055,1.105-.164,1.661-.241.9-.122,1.8-.235,2.686-.411.643-.129,1.285-.321,1.928-.466.771-.19,1.549-.366,2.307-.594.672-.206,1.321-.456,1.976-.688s1.4-.482,2.085-.765,1.356-.614,2.031-.932c.617-.292,1.237-.569,1.844-.89.717-.382,1.408-.8,2.1-1.221.524-.321,1.051-.614,1.562-.964.752-.495,1.472-1.031,2.192-1.568.418-.321.842-.611,1.25-.938.762-.61,1.485-1.26,2.208-1.928.263-.241.546-.453.806-.7.026-.023.035-.061.061-.087A44.932,44.932,0,0,0,62.044,17.067Zm6.3,43.268a.067.067,0,0,0-.055.019A13.606,13.606,0,0,1,65.6,61.491c-.167.048-.321.113-.5.154-.321.083-.659.141-.99.2a13.047,13.047,0,0,1-1.886.19h-.366a13.047,13.047,0,0,1-1.886-.19c-.321-.058-.662-.116-.99-.2-.17-.042-.321-.106-.5-.154A13.6,13.6,0,0,1,55.8,60.354l-.058-.019a12.853,12.853,0,1,1,12.6,0Zm-14.482,6.3a19.051,19.051,0,0,0,16.368,0A25.781,25.781,0,0,1,87.75,90.717c-.135.122-.263.244-.4.363-.585.514-1.189,1-1.8,1.475-.36.276-.72.549-1.089.813-.582.421-1.173.819-1.774,1.2-.437.279-.884.549-1.333.813q-.848.482-1.722.964c-.514.263-1.038.511-1.565.755s-1.109.5-1.677.733-1.173.444-1.767.643c-.543.186-1.086.379-1.636.543-.643.193-1.314.35-1.979.511-.521.122-1.035.26-1.562.363-.762.148-1.539.251-2.32.357-.443.058-.884.138-1.33.183-1.234.119-2.484.19-3.747.19s-2.513-.071-3.747-.19c-.447-.045-.887-.125-1.33-.183-.781-.106-1.559-.209-2.32-.357-.527-.1-1.041-.241-1.562-.363-.665-.161-1.327-.321-1.979-.511-.549-.164-1.093-.357-1.636-.543-.594-.206-1.189-.415-1.767-.643s-1.125-.479-1.677-.733-1.051-.492-1.565-.755c-.582-.3-1.157-.62-1.722-.964-.45-.264-.9-.534-1.334-.813-.6-.382-1.192-.781-1.774-1.2-.37-.264-.729-.537-1.089-.813-.61-.472-1.215-.964-1.8-1.475-.141-.106-.27-.241-.408-.363A25.781,25.781,0,0,1,53.86,66.633ZM93.45,84.345a32.3,32.3,0,0,0-17.2-22.15,19.28,19.28,0,1,0-28.405,0,32.3,32.3,0,0,0-17.2,22.15,38.559,38.559,0,1,1,62.812,0Z" transform="translate(-17.057 -16.754)" fill="#696969"/>
</svg>
