<svg id="icon-about_us" data-name="icon-about us" xmlns="http://www.w3.org/2000/svg" width="90" height="90" viewBox="0 0 90 90">
  <rect id="Rectangle_1094" data-name="Rectangle 1094" width="26" height="26" transform="translate(0 0.067)" fill="red" opacity="0"/>
  <g id="Group_147" data-name="Group 147" transform="translate(6.923)">
    <g id="Group_57" data-name="Group 57" transform="translate(0 20.923)">
      <g id="Group_56" data-name="Group 56">
        <g id="Symbol_1_0_Layer0_0_FILL" data-name="Symbol 1 0 Layer0 0 FILL">
          <path id="Path_68" data-name="Path 68" d="M565.982,112.762a.921.921,0,0,1-.022.2l.022,6.811-23.338.022q-5.393-.106-3.956,5.018c.085.3.173.605.266.9a40.322,40.322,0,0,0,9.521,15.84Q555.983,149.3,568.418,154a3.794,3.794,0,0,0,2.436.107,3.842,3.842,0,0,0,1.989-1.379,3.719,3.719,0,0,0,.776-2.292l.012-37.389q.723-9.007-9.84-10.387a3.837,3.837,0,0,0-.49-.032H544.059a3.632,3.632,0,0,0-2.713,1.1,3.841,3.841,0,0,0,2.713,6.558h18.966q2.766.434,2.958,2.472m-12.01,23.458a32.615,32.615,0,0,1-6.105-8.765l18.116-.021L565.96,144.6a42.854,42.854,0,0,1-11.988-8.382m57.111-27.055a3.836,3.836,0,0,0,0-5.433,3.632,3.632,0,0,0-2.712-1.1H589.128a3.834,3.834,0,0,0-.489.032q-10.563,1.379-9.84,10.387l.011,37.389a3.713,3.713,0,0,0,.776,2.292,3.846,3.846,0,0,0,1.99,1.379,3.794,3.794,0,0,0,2.436-.107q12.435-4.7,19.944-12.444a40.339,40.339,0,0,0,9.52-15.84q.138-.445.266-.9,1.436-5.125-3.956-5.018l-23.338-.022.022-6.811a.921.921,0,0,1-.022-.2q.191-2.038,2.957-2.472H608.37a3.705,3.705,0,0,0,2.712-1.125M586.469,144.6l-.022-17.167,18.116.021a32.608,32.608,0,0,1-6.105,8.765A42.856,42.856,0,0,1,586.469,144.6Z" transform="translate(-538.385 -102.63)" fill="#696969"/>
        </g>
      </g>
    </g>
    <g id="Group_59" data-name="Group 59" transform="translate(17.222)">
      <g id="Group_58" data-name="Group 58">
        <g id="Symbol_2_0_Layer0_0_FILL" data-name="Symbol 2 0 Layer0 0 FILL">
          <path id="Path_69" data-name="Path 69" d="M591.23,89.242a1.7,1.7,0,0,0-2.446-2.374L581.89,94a16.322,16.322,0,0,0-2.024-1.343l.01.012a17.286,17.286,0,0,0-16.46,0,17.39,17.39,0,0,0-1.982,1.31l-6.764-6.961a1.626,1.626,0,0,0-1.186-.527,1.6,1.6,0,0,0-1.206.483,1.671,1.671,0,0,0-.044,2.4l6.7,6.909a16.368,16.368,0,0,0-2.963,4.609,2.752,2.752,0,0,0,1.443,3.6,2.7,2.7,0,0,0,2.112.021,2.616,2.616,0,0,0,1.5-1.45A11.455,11.455,0,0,1,563.46,99.5q.236-.226.495-.461l-.043.042a11.864,11.864,0,0,1,2.207-1.622h.012a10.673,10.673,0,0,1,5.515-1.365,10.861,10.861,0,0,1,5.536,1.365l.011.01a11.506,11.506,0,0,1,2.575,1.967l.021.022a12.135,12.135,0,0,1,2.5,3.6,2.644,2.644,0,0,0,1.518,1.461,2.674,2.674,0,0,0,2.1-.044,2.569,2.569,0,0,0,1.455-1.514,2.626,2.626,0,0,0-.032-2.1,16.621,16.621,0,0,0-2.952-4.556Z" transform="translate(-551.75 -86.351)" fill="#696969"/>
        </g>
      </g>
    </g>
    <g id="Group_61" data-name="Group 61" transform="translate(29.455 76.44)">
      <g id="Group_60" data-name="Group 60">
        <g id="Symbol_3_0_Layer0_0_FILL" data-name="Symbol 3 0 Layer0 0 FILL">
          <path id="Path_70" data-name="Path 70" d="M578.86,149.233a2.109,2.109,0,0,0,.334-1.632,2.062,2.062,0,0,0-.916-1.4,2.2,2.2,0,0,0-3.027.569,53.421,53.421,0,0,1-4.664,5.888c-.115.129-.233.257-.356.387-.123-.13-.241-.258-.356-.387a49.958,49.958,0,0,1-4.643-5.888,2.07,2.07,0,0,0-1.4-.9,2.164,2.164,0,0,0-2.2,3.352q1.2,1.762,2.532,3.438a54.844,54.844,0,0,0,4.545,5.06,2.133,2.133,0,0,0,1.53.623,2.106,2.106,0,0,0,1.529-.623,56.076,56.076,0,0,0,4.557-5.06Q577.663,151,578.86,149.233Z" transform="translate(-561.243 -145.823)" fill="#696969"/>
        </g>
      </g>
    </g>
  </g>
</svg>
