<svg id="icon-shop" xmlns="http://www.w3.org/2000/svg" width="90" height="90" viewBox="0 0 90 90">
  <rect id="Rectangle_1093" data-name="Rectangle 1093" width="90" height="90" fill="red" opacity="0"/>
  <g id="Group_146" data-name="Group 146" transform="translate(-64.557 64)">
    <g id="Group_76" data-name="Group 76" transform="translate(76.557 -63.523)">
      <path id="Path_90" data-name="Path 90" d="M134.061,77.32,129.3,24.927a2.8,2.8,0,0,0-2.792-2.546h-8.393v-5.6a16.786,16.786,0,0,0-33.571,0v5.6H76.151a2.794,2.794,0,0,0-2.786,2.546L68.6,77.32a11.188,11.188,0,0,0,11.146,12.2h43.167a11.188,11.188,0,0,0,11.146-12.2ZM90.139,16.786a11.19,11.19,0,1,1,22.381,0v5.6H90.139ZM127.045,82.11a5.554,5.554,0,0,1-4.135,1.818H79.749a5.594,5.594,0,0,1-5.567-6.1l4.527-49.848h5.836v8.393a2.8,2.8,0,0,0,5.6,0V27.976H112.52v8.393a2.8,2.8,0,1,0,5.6,0V27.976h5.836l4.532,49.853A5.525,5.525,0,0,1,127.045,82.11Z" transform="translate(-68.557)" fill="#696969"/>
    </g>
  </g>
</svg>
