<svg xmlns="http://www.w3.org/2000/svg" width="25" height="25.5" viewBox="0 0 25 25.5">
  <g id="Group_948" data-name="Group 948" transform="translate(-244 -527.5)">
    <rect id="Rectangle_1436" data-name="Rectangle 1436" width="25" height="25" transform="translate(244 528)" fill="#e5e5e5" opacity="0"/>
    <g id="Group_920" data-name="Group 920" transform="translate(0 -34)">
      <path id="Path_207" data-name="Path 207" d="M0,0H25V25H0Z" transform="translate(244 561.5)" fill="#696969" opacity="0"/>
      <g id="Group_918" data-name="Group 918" transform="translate(244.962 562.086)">
        <g id="Group_919" data-name="Group 919">
          <g id="Group_918-2" data-name="Group 918">
            <g id="Symbol_46_0_Layer0_0_FILL" data-name="Symbol 46 0 Layer0 0 FILL">
              <path id="Path_590" data-name="Path 590" d="M687.344,119.231a1.96,1.96,0,0,0-1.33.532l-9.5,9.5a1.96,1.96,0,0,0-.532,1.33,1.823,1.823,0,0,0,.532,1.292,1.75,1.75,0,0,0,1.33.532,1.636,1.636,0,0,0,1.292-.532l8.208-8.17,8.17,8.17a1.752,1.752,0,0,0,1.33.532,1.817,1.817,0,0,0,1.824-1.824,1.752,1.752,0,0,0-.532-1.33l-9.5-9.5A1.823,1.823,0,0,0,687.344,119.231Z" transform="translate(-675.981 -119.231)" fill="#878787"/>
              <path id="Path_591" data-name="Path 591" d="M695.688,142.761h-.038a5.579,5.579,0,0,0-5.624,5.624v6.878a1.668,1.668,0,0,0,.494,1.178,1.6,1.6,0,0,0,1.216.494,1.688,1.688,0,0,0,1.672-1.672v-6.878a2.207,2.207,0,0,1,2.242-2.242h.038a2.067,2.067,0,0,1,1.52.646.3.3,0,0,1,.038.038,2.027,2.027,0,0,1,.646,1.558v6.878a1.667,1.667,0,0,0,.494,1.178,1.6,1.6,0,0,0,1.216.494,1.688,1.688,0,0,0,1.672-1.672v-6.878a5.269,5.269,0,0,0-1.634-3.952l-.038-.038A5.359,5.359,0,0,0,695.688,142.761Z" transform="translate(-684.174 -132.956)" fill="#f05368"/>
            </g>
          </g>
        </g>
      </g>
    </g>
  </g>
</svg>
