<svg xmlns="http://www.w3.org/2000/svg" xmlns:xlink="http://www.w3.org/1999/xlink" width="50" height="64.703" viewBox="0 0 50 64.703">
  <defs>
    <clipPath id="clip-path">
      <rect id="Rectangle_1113" data-name="Rectangle 1113" width="50" height="63" transform="translate(0.277 -0.18)" fill="#fff"/>
    </clipPath>
  </defs>
  <g id="Group_448" data-name="Group 448" transform="translate(-0.277)">
    <path id="Path_228" data-name="Path 228" d="M247.731,236.24a6.175,6.175,0,1,0-6.176-6.175,6.177,6.177,0,0,0,6.176,6.175Zm0,0" transform="translate(-223.438 -223.89)" fill="#fff"/>
    <g id="Group_169" data-name="Group 169" transform="translate(0 1.883)">
      <g id="Group_168" data-name="Group 168" transform="translate(0 0)" clip-path="url(#clip-path)">
        <path id="Path_229" data-name="Path 229" d="M170.205,404.8a13.648,13.648,0,1,1-18.607-16.26v-5.788a19.086,19.086,0,1,0,22.813,26.267l-2.156-4.235-2.05.017Zm0,0" transform="translate(-136.37 -359.343)" fill="#fff"/>
        <path id="Path_230" data-name="Path 230" d="M279.159,357.457,270.888,341.2a3.62,3.62,0,0,0-3.23-1.983H257.064V336.8h9.117a2.851,2.851,0,0,0,2.72-2.72,2.719,2.719,0,0,0-2.72-2.72h-9.117v-8.193a5.438,5.438,0,1,0-10.876,0v17.751a5.549,5.549,0,0,0,5.548,5.549h13.7l7.263,14.28a3.625,3.625,0,1,0,6.462-3.288Zm0,0" transform="translate(-227.333 -304.669)" fill="#fff"/>
      </g>
    </g>
  </g>
</svg>
