<svg id="Group_443" data-name="Group 443" xmlns="http://www.w3.org/2000/svg" width="57.697" height="67.016" viewBox="0 0 57.697 67.016">
  <g id="Group_179" data-name="Group 179" transform="translate(0)">
    <ellipse id="Ellipse_63" data-name="Ellipse 63" cx="10.492" cy="8.331" rx="10.492" ry="8.331" transform="translate(0.296 34.794)" fill="#fff"/>
    <ellipse id="Ellipse_64" data-name="Ellipse 64" cx="5.829" cy="7.141" rx="5.829" ry="7.141" transform="translate(39.934 37.174)" fill="#fff"/>
    <path id="Path_246" data-name="Path 246" d="M348.31,406.837a1.942,1.942,0,0,0,1.923-1.963v-4.058a9.618,9.618,0,1,0-19.233,0v4.058a1.942,1.942,0,0,0,1.923,1.963Z" transform="translate(-292.535 -339.823)" fill="#fff"/>
    <path id="Path_247" data-name="Path 247" d="M31,65.051a1.942,1.942,0,0,0,1.923,1.963H48.309a1.942,1.942,0,0,0,1.923-1.963V59.031h1.923A15.567,15.567,0,0,0,67.542,43.324V35.471a3.888,3.888,0,0,0-1.923-3.323V16.2a11.951,11.951,0,0,1,4.341,2.913,1.908,1.908,0,0,0,1.427.648h.006a1.913,1.913,0,0,0,1.429-.652c.028-.033,2.964-3.273,6.26-3.273,3.315,0,6.236,3.244,6.264,3.277a1.908,1.908,0,0,0,2.12.516A1.963,1.963,0,0,0,88.7,17.8C88.7,8.389,77.014,0,63.7,0s-25,8.389-25,17.8a1.962,1.962,0,0,0,1.236,1.833,1.9,1.9,0,0,0,2.12-.523c.028-.033,2.964-3.273,6.26-3.273,3.315,0,6.236,3.244,6.264,3.277A1.908,1.908,0,0,0,56,19.762h.006a1.913,1.913,0,0,0,1.429-.652A12.054,12.054,0,0,1,61.772,16.2V32.148a3.888,3.888,0,0,0-1.923,3.323v7.853a7.782,7.782,0,0,1-7.693,7.853H42.54A11.789,11.789,0,0,0,31,63.088Z" transform="translate(-31)" fill="#fff"/>
  </g>
</svg>
