<svg xmlns="http://www.w3.org/2000/svg" width="25" height="25" viewBox="0 0 25 25">
  <g id="Group_953" data-name="Group 953" transform="translate(-244 -716)">
    <rect id="Rectangle_1438" data-name="Rectangle 1438" width="25" height="25" transform="translate(244 716)" fill="#e5e5e5" opacity="0"/>
    <g id="Group_931" data-name="Group 931" transform="translate(-434.85 -28.6)">
      <g id="Group_930" data-name="Group 930" transform="translate(678.85 745.6)">
        <g id="Layer2_0_FILL" data-name="Layer2 0 FILL">
          <path id="Path_598" data-name="Path 598" d="M679.644,754.714a3.625,3.625,0,0,0-.794,2.323,3.177,3.177,0,0,0,.774,2.1l3.832,7.029a1.189,1.189,0,0,0,.079.119,7.29,7.29,0,0,0,1.41,1.43.6.6,0,0,0,.139.079,4.889,4.889,0,0,0,2.284.556h8.042a4.46,4.46,0,0,0,2.164-.556.2.2,0,0,0,.06-.04,4.494,4.494,0,0,0,1.589-1.549.042.042,0,0,0,.02-.04l3.971-7.109a3.468,3.468,0,0,0,.635-2.025,3.913,3.913,0,0,0-.675-2.3l-3.932-6.93a4.2,4.2,0,0,0-1.628-1.688.434.434,0,0,0-.06-.04,4.874,4.874,0,0,0-2.145-.477h-8.042a5.559,5.559,0,0,0-2.224.457l-.2.1a6.111,6.111,0,0,0-1.45,1.589.132.132,0,0,1-.04.06l-3.812,6.91m1.688,3.4a.836.836,0,0,0-.139-.179,1.388,1.388,0,0,1-.357-.894,1.681,1.681,0,0,1,.377-1.112.475.475,0,0,0,.1-.159l3.872-6.99-.02.06a4.308,4.308,0,0,1,.894-1.013,3.532,3.532,0,0,1,1.311-.238h8.042a2.819,2.819,0,0,1,1.271.278,2.425,2.425,0,0,1,.834.894c0,.012,0,.019,0,.02l3.971,6.99a.3.3,0,0,1,.04.079,2.094,2.094,0,0,1,.338,1.191,1.6,1.6,0,0,1-.318.973.267.267,0,0,1-.06.079l-3.951,7.069a2.676,2.676,0,0,1-.894.894,2.552,2.552,0,0,1-1.231.318h-8.042a2.972,2.972,0,0,1-1.311-.3,5.554,5.554,0,0,1-.894-.913Z" transform="translate(-678.85 -745.6)" fill="#878787"/>
          <path id="Path_599" data-name="Path 599" d="M704.114,760.538a1.7,1.7,0,0,0-.894-.238h-4.269a2.073,2.073,0,0,0-.973.238,1.844,1.844,0,0,0-.655.7l-2.065,3.733a1.305,1.305,0,0,0-.357.933,1.256,1.256,0,0,0,.357.854l2.065,3.733a2.568,2.568,0,0,0,.655.655,2.225,2.225,0,0,0,.973.218h4.269a1.975,1.975,0,0,0,.894-.218,2.078,2.078,0,0,0,.695-.655l2.1-3.733a1.539,1.539,0,0,0,.258-.854,1.615,1.615,0,0,0-.258-.933l-2.1-3.733A1.6,1.6,0,0,0,704.114,760.538Z" transform="translate(-688.526 -754.462)" fill="#f05368"/>
        </g>
      </g>
    </g>
  </g>
</svg>
