<svg xmlns="http://www.w3.org/2000/svg" width="44.667" height="36.23" viewBox="0 0 44.667 36.23">
  <path id="Path_39" data-name="Path 39" d="M52.144,38.23c16.874,0,26.056-13.9,26.056-26.056V10.933a20.17,20.17,0,0,0,4.467-4.715,20.6,20.6,0,0,1-5.211,1.489,9.655,9.655,0,0,0,3.97-4.963,22.761,22.761,0,0,1-5.707,2.233A8.862,8.862,0,0,0,69.019,2a9.323,9.323,0,0,0-9.181,9.181,4.838,4.838,0,0,0,.248,1.985A25.656,25.656,0,0,1,41.226,3.489,9.5,9.5,0,0,0,39.985,8.2a9.859,9.859,0,0,0,3.97,7.693,8.366,8.366,0,0,1-4.219-1.241h0a9.069,9.069,0,0,0,7.444,8.933,7.65,7.65,0,0,1-2.482.248,4.223,4.223,0,0,1-1.737-.248,9.4,9.4,0,0,0,8.685,6.452,18.736,18.736,0,0,1-11.415,3.97A6.87,6.87,0,0,1,38,33.763,23.422,23.422,0,0,0,52.144,38.23" transform="translate(-38 -2)" fill="#059ef5" fill-rule="evenodd"/>
</svg>
